<svg xmlns="http://www.w3.org/2000/svg" viewBox="0 0 960 540" width="960" height="540" role="img" aria-label="Medel, problem 5 · Lösning A. Lösning A, bitarna på varandra. De två stora är halva den stora kvadraten, så en stor är 400 / 4 = 100 cm². Den mellanstora täcker halva den stora: 100 / 2 = 50 cm². De två små täcker den mellanstora, så en liten är 50 / 2 = 25 cm². Två små täcker också kvadraten och parallellogrammet: 2 · 25 = 50 cm²."><title>Medel, problem 5 · Lösning A</title><rect width="960" height="540" fill="#fff"/><path d="M40 28L152 28L96 84Z" fill="#cfe0f3" stroke="#1f3a5f" stroke-width="2.5" stroke-linejoin="round" stroke-linecap="round"/><path d="M40 28L40 140L96 84Z" fill="#cfe0f3" stroke="#1f3a5f" stroke-width="2.5" stroke-linejoin="round" stroke-linecap="round"/><path d="M152 84L152 140L96 140Z" fill="#fff" stroke="#1f3a5f" stroke-width="2.5" stroke-linejoin="round" stroke-linecap="round"/><path d="M96 84L124 56L152 84L124 112Z" fill="#fff" stroke="#1f3a5f" stroke-width="2.5" stroke-linejoin="round" stroke-linecap="round"/><path d="M124 56L152 28L152 84Z" fill="#fff" stroke="#1f3a5f" stroke-width="2.5" stroke-linejoin="round" stroke-linecap="round"/><path d="M96 84L124 112L68 112Z" fill="#fff" stroke="#1f3a5f" stroke-width="2.5" stroke-linejoin="round" stroke-linecap="round"/><path d="M40 140L68 112L124 112L96 140Z" fill="#fff" stroke="#1f3a5f" stroke-width="2.5" stroke-linejoin="round" stroke-linecap="round"/><path d="M0 0m175 455v545q0 147-2 274q-2 126-13 186q43 3 125 6q82 2 173 3q90 1 157 1q64 0 154-14q89-14 184-55q95-41 178-121q82-81 133-212q51-132 51-328q0-178-46-306q-46-129-123-215q-77-86-171-136q-95-50-193-71q-99-22-187-22q-46 0-123 2q-78 1-162 4q-84 2-150 4q11 60 13 184q2 123 2 271zm190 850v-1140q35-3 92-6q57-4 128-4q101 0 196 31q95 30 172 97q77 67 122 175q45 108 45 262q0 224-72 353q-73 128-193 183q-121 54-265 54q-49 0-118-1q-69-2-107-4zM1435 0m989 485h-744v140h565q0 129-70 197q-71 68-180 68q-131 0-205-93q-75-93-75-292q0-185 91-275q90-90 229-90q97 0 191 23q93 22 184 77l20-165q-106-55-205-77q-99-23-215-23q-127 0-236 59q-110 59-177 175q-67 116-67 286q0 166 59 288q58 122 166 190q107 67 255 67q124 0 205-42q80-42 126-112q46-70 65-154q19-85 19-169q0-13 0-38q0-26-1-40zM3080 0m760 215v-160q-69-44-132-62q-63-18-116-18q-78 0-142 26q-64 25-102 90q-38 64-38 179q0 36 0 118q0 82 0 194q0 111 0 239q0 127 0 256q0 129 0 243h185q0-128 0-273q0-146 0-282q0-136 0-236q0-101 0-139q0-103 14-157q13-54 41-73q28-20 73-20q82 0 217 75zm-20 635h-710v145h710zM3915 0m840 1020h210q-28-57-58-124q-30-68-55-129q-26-62-42-102q-14-35-44-110q-30-75-68-171q-38-97-78-197q-40-101-75-187h-190q-33 82-71 180q-39 97-77 193q-38 95-69 173q-31 77-48 119q-16 41-42 102q-26 61-55 129q-30 67-58 124h210l305-820zM4985 0m1055 0h-175q-14 32-24 94q-11 61-16 127q-5 65-5 109v80q-39-103-100-203q-61-101-143-166q-82-66-187-66q-126 0-213 112q-87 111-87 323q0 119 32 232q32 112 98 202q66 90 168 143q102 53 242 53q97 0 183-12q86-13 162-33v-465q0-189 18-317q18-129 47-213zm-250 735v127q-25 6-62 12q-38 6-113 6q-130 0-204-67q-75-68-105-175q-31-107-31-228q0-116 43-190q43-75 102-75q53 0 106 47q53 46 101 120q47 73 84 155q36 81 58 153q21 72 21 115zm-98 650q0 45-28 78q-29 32-82 32q-52 0-81-32q-29-33-29-78q0-45 29-77q29-33 81-33q53 0 82 33q28 32 28 77zm-325 0q0 90 63 153q62 62 152 62q90 0 153-62q62-63 62-153q0-90-62-152q-63-63-153-63q-90 0-152 63q-63 62-63 152zM6685 0m835 960l-35-175q-50 29-126 62q-76 33-169 33q-110 0-152-42q-43-43-43-88q0-35 17-59q16-25 67-46q51-21 156-45q91-20 166-56q74-36 119-96q45-60 45-153q0-90-51-162q-52-73-139-115q-87-43-195-43q-121 0-223 35q-103 34-162 80l50 180q68-61 165-98q96-37 175-37q88 0 144 42q56 41 56 93q0 38-22 70q-22 31-81 60q-60 28-172 55q-121 30-185 73q-64 43-87 97q-23 53-23 115q0 35 18 85q18 50 61 100q42 49 117 82q75 33 189 33q109 0 189-25q79-26 131-55zM7650 0m760 215v-160q-69-44-132-62q-63-18-116-18q-78 0-142 26q-64 25-102 90q-38 64-38 179q0 36 0 118q0 82 0 194q0 111 0 239q0 127 0 256q0 129 0 243h185q0-128 0-273q0-146 0-282q0-136 0-236q0-101 0-139q0-103 14-157q13-54 41-73q28-20 73-20q82 0 217 75zm-20 635h-710v145h710zM8485 0m95 505q0 172 67 292q66 119 177 181q110 62 241 62q138 0 243-62q104-62 163-181q59-120 59-292q0-172-66-290q-67-118-177-179q-110-61-242-61q-137 0-242 61q-105 61-164 179q-59 118-59 290zm185 0q0-175 81-272q80-98 209-98q121 0 206 98q84 97 84 272q0 176-80 276q-81 99-210 99q-121 0-205-99q-85-100-85-276zM9625 0m340 0h-185v615q0 147-16 250q-17 103-34 155h180q8-21 16-58q7-37 14-75q7-38 10-62q73 104 165 160q92 55 160 55q84 0 135-47q50-48 73-124q22-76 22-164l-160-35q0 75-28 133q-28 57-87 57q-42 0-95-41q-54-42-101-106q-47-65-69-133zM10515 0m1055 0h-175q-14 32-24 94q-11 61-16 127q-5 65-5 109v80q-39-103-100-203q-61-101-143-166q-82-66-187-66q-126 0-213 112q-87 111-87 323q0 119 32 232q32 112 98 202q66 90 168 143q102 53 242 53q97 0 183-12q86-13 162-33v-465q0-189 18-317q18-129 47-213zm-250 735v127q-25 6-62 12q-38 6-113 6q-130 0-204-67q-75-68-105-175q-31-107-31-228q0-116 43-190q43-75 102-75q53 0 106 47q53 46 101 120q47 73 84 155q36 81 58 153q21 72 21 115zM12215 0m1055 0h-175q-14 32-24 94q-11 61-16 127q-5 65-5 109v80q-39-103-100-203q-61-101-143-166q-82-66-187-66q-126 0-213 112q-87 111-87 323q0 119 32 232q32 112 98 202q66 90 168 143q102 53 242 53q97 0 183-12q86-13 162-33v-465q0-189 18-317q18-129 47-213zm-250 735v127q-25 6-62 12q-38 6-113 6q-130 0-204-67q-75-68-105-175q-31-107-31-228q0-116 43-190q43-75 102-75q53 0 106 47q53 46 101 120q47 73 84 155q36 81 58 153q21 72 21 115zm-130 610q0 56 38 96q37 39 92 39q56 0 93-39q37-40 37-96q0-55-37-95q-37-40-93-40q-55 0-92 40q-38 40-38 95zm-420 0q0 56 38 96q37 39 92 39q56 0 93-39q37-40 37-96q0-55-37-95q-37-40-93-40q-55 0-92 40q-38 40-38 95zM13365 0m340 0h-185v615q0 147-16 250q-17 103-34 155h180q8-21 16-58q7-37 14-75q7-38 10-62q73 104 165 160q92 55 160 55q84 0 135-47q50-48 73-124q22-76 22-164l-160-35q0 75-28 133q-28 57-87 57q-42 0-95-41q-54-42-101-106q-47-65-69-133zM14805 0m330 580v-580h-185q0 121 0 258q0 136 0 272q0 136 0 257q0 121 0 211q0 89 0 132q0 161-2 284q-2 122-13 186h200q0-117 0-245q0-129 0-244q0-115 0-191q0-77 0-90q74 104 175 157q100 53 205 53q160 0 245-104q85-105 85-311q0-45 0-120q0-75 0-164q0-89 0-178q0-89 0-163h-185q0 67 0 147q0 79 0 158q0 78 0 143q0 65 0 102q0 125-22 194q-22 68-66 95q-45 26-112 26q-72 0-138-43q-66-43-115-108q-50-66-72-134zM15980 0m1055 0h-175q-14 32-24 94q-11 61-16 127q-5 65-5 109v80q-39-103-100-203q-61-101-143-166q-82-66-187-66q-126 0-213 112q-87 111-87 323q0 119 32 232q32 112 98 202q66 90 168 143q102 53 242 53q97 0 183-12q86-13 162-33v-465q0-189 18-317q18-129 47-213zm-250 735v127q-25 6-62 12q-38 6-113 6q-130 0-204-67q-75-68-105-175q-31-107-31-228q0-116 43-190q43-75 102-75q53 0 106 47q53 46 101 120q47 73 84 155q36 81 58 153q21 72 21 115zM17130 0m375 1600v-1125q0-64 3-155q2-91 7-178q4-87 10-142h-205v1130q0 293-20 470zM17695 0m840 1020h210q-28-57-58-124q-30-68-55-129q-26-62-42-102q-14-35-44-110q-30-75-68-171q-38-97-78-197q-40-101-75-187h-190q-33 82-71 180q-39 97-77 193q-38 95-69 173q-31 77-48 119q-16 41-42 102q-26 61-55 129q-30 67-58 124h210l305-820zM18765 0m1055 0h-175q-14 32-24 94q-11 61-16 127q-5 65-5 109v80q-39-103-100-203q-61-101-143-166q-82-66-187-66q-126 0-213 112q-87 111-87 323q0 119 32 232q32 112 98 202q66 90 168 143q102 53 242 53q97 0 183-12q86-13 162-33v-465q0-189 18-317q18-129 47-213zm-250 735v127q-25 6-62 12q-38 6-113 6q-130 0-204-67q-75-68-105-175q-31-107-31-228q0-116 43-190q43-75 102-75q53 0 106 47q53 46 101 120q47 73 84 155q36 81 58 153q21 72 21 115zM20465 0m1030 1600v-1070q0-189 22-317q21-129 53-213h-180q-11 26-26 78q-16 52-29 107q-71-101-163-155q-92-55-202-55q-122 0-212 60q-90 60-139 170q-49 109-49 255q0 177 63 307q63 130 171 202q107 71 241 71q64 0 136-26q71-26 129-59v280q0 120-5 211q-6 91-20 154zm-185-1200v395q-74 40-131 58q-58 17-134 17q-76 0-142-45q-66-46-107-131q-41-85-41-204q0-174 60-264q60-91 190-91q61 0 121 39q59 38 108 99q49 61 76 127zM21655 0m989 485h-744v140h565q0 129-70 197q-71 68-180 68q-131 0-205-93q-75-93-75-292q0-185 91-275q90-90 229-90q97 0 191 23q93 22 184 77l20-165q-106-55-205-77q-99-23-215-23q-127 0-236 59q-110 59-177 175q-67 116-67 286q0 166 59 288q58 122 166 190q107 67 255 67q124 0 205-42q80-42 126-112q46-70 65-154q19-85 19-169q0-13 0-38q0-26-1-40zM22750 0m1050 0h-185q0 67 0 147q0 79 0 158q0 78 0 143q0 65 0 102q0 125-22 194q-22 68-66 95q-44 26-112 26q-72 0-138-43q-66-43-115-108q-50-66-72-134v-580h-185q0 91 0 208q0 116 0 226q0 110 0 181q0 147-16 250q-17 103-34 155h180q8-21 16-58q7-37 14-75q7-38 10-62q95 114 192 165q97 50 203 50q160 0 245-104q85-105 85-311q0-45 0-120q0-75 0-164q0-89 0-178q0-89 0-163zM24485 0m835 960l-35-175q-50 29-126 62q-76 33-169 33q-110 0-152-42q-43-43-43-88q0-35 17-59q16-25 67-46q51-21 156-45q91-20 166-56q74-36 119-96q45-60 45-153q0-90-51-162q-52-73-139-115q-87-43-195-43q-121 0-223 35q-103 34-162 80l50 180q68-61 165-98q96-37 175-37q88 0 144 42q56 41 56 93q0 38-22 70q-22 31-81 60q-60 28-172 55q-121 30-185 73q-64 43-87 97q-23 53-23 115q0 35 18 85q18 50 61 100q42 49 117 82q75 33 189 33q109 0 189-25q79-26 131-55zM25450 0m760 215v-160q-69-44-132-62q-63-18-116-18q-78 0-142 26q-64 25-102 90q-38 64-38 179q0 36 0 118q0 82 0 194q0 111 0 239q0 127 0 256q0 129 0 243h185q0-128 0-273q0-146 0-282q0-136 0-236q0-101 0-139q0-103 14-157q13-54 41-73q28-20 73-20q82 0 217 75zm-20 635h-710v145h710zM26285 0m95 505q0 172 67 292q66 119 177 181q110 62 241 62q138 0 243-62q104-62 163-181q59-120 59-292q0-172-66-290q-67-118-177-179q-110-61-242-61q-137 0-242 61q-105 61-164 179q-59 118-59 290zm185 0q0-175 81-272q80-98 209-98q121 0 206 98q84 97 84 272q0 176-80 276q-81 99-210 99q-121 0-205-99q-85-100-85-276zM27425 0m340 0h-185v615q0 147-16 250q-17 103-34 155h180q8-21 16-58q7-37 14-75q7-38 10-62q73 104 165 160q92 55 160 55q84 0 135-47q50-48 73-124q22-76 22-164l-160-35q0 75-28 133q-28 57-87 57q-42 0-95-41q-54-42-101-106q-47-65-69-133zM28315 0m1055 0h-175q-14 32-24 94q-11 61-16 127q-5 65-5 109v80q-39-103-100-203q-61-101-143-166q-82-66-187-66q-126 0-213 112q-87 111-87 323q0 119 32 232q32 112 98 202q66 90 168 143q102 53 242 53q97 0 183-12q86-13 162-33v-465q0-189 18-317q18-129 47-213zm-250 735v127q-25 6-62 12q-38 6-113 6q-130 0-204-67q-75-68-105-175q-31-107-31-228q0-116 43-190q43-75 102-75q53 0 106 47q53 46 101 120q47 73 84 155q36 81 58 153q21 72 21 115zM30015 0m330 0h-185q0 121 0 258q0 136 0 272q0 136 0 257q0 120 0 210q0 90 0 133q0 161-2 284q-2 122-13 186h200zm405 1020h250l-549-496l-156 26zm-430-470l105 110l605-660h-245zM31050 0m840 1020h210q-28-57-58-124q-30-68-55-129q-26-62-42-102q-14-35-44-110q-30-75-68-171q-38-97-78-197q-40-101-75-187h-190q-33 82-71 180q-39 97-77 193q-38 95-69 173q-31 77-48 119q-16 41-42 102q-26 61-55 129q-30 67-58 124h210l305-820zM32120 0m1055 0h-175q-14 32-24 94q-11 61-16 127q-5 65-5 109v80q-39-103-100-203q-61-101-143-166q-82-66-187-66q-126 0-213 112q-87 111-87 323q0 119 32 232q32 112 98 202q66 90 168 143q102 53 242 53q97 0 183-12q86-13 162-33v-465q0-189 18-317q18-129 47-213zm-250 735v127q-25 6-62 12q-38 6-113 6q-130 0-204-67q-75-68-105-175q-31-107-31-228q0-116 43-190q43-75 102-75q53 0 106 47q53 46 101 120q47 73 84 155q36 81 58 153q21 72 21 115zM33270 0m1030 1600v-1070q0-189 22-317q21-129 53-213h-180q-11 26-26 78q-16 52-29 107q-71-101-163-155q-92-55-202-55q-122 0-212 60q-90 60-139 170q-49 109-49 255q0 177 63 307q63 130 171 202q107 71 241 71q64 0 136-26q71-26 129-59v280q0 120-5 211q-6 91-20 154zm-185-1200v395q-74 40-131 58q-58 17-134 17q-76 0-142-45q-66-46-107-131q-41-85-41-204q0-174 60-264q60-91 190-91q61 0 121 39q59 38 108 99q49 61 76 127zM34460 0m340 0h-185v615q0 147-16 250q-17 103-34 155h180q8-21 16-58q7-37 14-75q7-38 10-62q73 104 165 160q92 55 160 55q84 0 135-47q50-48 73-124q22-76 22-164l-160-35q0 75-28 133q-28 57-87 57q-42 0-95-41q-54-42-101-106q-47-65-69-133zM35350 0m1055 0h-175q-14 32-24 94q-11 61-16 127q-5 65-5 109v80q-39-103-100-203q-61-101-143-166q-82-66-187-66q-126 0-213 112q-87 111-87 323q0 119 32 232q32 112 98 202q66 90 168 143q102 53 242 53q97 0 183-12q86-13 162-33v-465q0-189 18-317q18-129 47-213zm-250 735v127q-25 6-62 12q-38 6-113 6q-130 0-204-67q-75-68-105-175q-31-107-31-228q0-116 43-190q43-75 102-75q53 0 106 47q53 46 101 120q47 73 84 155q36 81 58 153q21 72 21 115zM36500 0m760 215v-160q-69-44-132-62q-63-18-116-18q-78 0-142 26q-64 25-102 90q-38 64-38 179q0 36 0 118q0 82 0 194q0 111 0 239q0 127 0 256q0 129 0 243h185q0-128 0-273q0-146 0-282q0-136 0-236q0-101 0-139q0-103 14-157q13-54 41-73q28-20 73-20q82 0 217 75zm-20 635h-710v145h710zM37335 0m989 485h-744v140h565q0 129-70 197q-71 68-180 68q-131 0-205-93q-75-93-75-292q0-185 91-275q90-90 229-90q97 0 191 23q93 22 184 77l20-165q-106-55-205-77q-99-23-215-23q-127 0-236 59q-110 59-177 175q-67 116-67 286q0 166 59 288q58 122 166 190q107 67 255 67q124 0 205-42q80-42 126-112q46-70 65-154q19-85 19-169q0-13 0-38q0-26-1-40zM38430 0m1050 0h-185q0 67 0 147q0 79 0 158q0 78 0 143q0 65 0 102q0 125-22 194q-22 68-66 95q-44 26-112 26q-72 0-138-43q-66-43-115-108q-50-66-72-134v-580h-185q0 91 0 208q0 116 0 226q0 110 0 181q0 147-16 250q-17 103-34 155h180q8-21 16-58q7-37 14-75q7-38 10-62q95 114 192 165q97 50 203 50q160 0 245-104q85-105 85-311q0-45 0-120q0-75 0-164q0-89 0-178q0-89 0-163zM39615 0m185 110q0 56 40 96q40 39 95 39q56 0 96-39q39-40 39-96q0-55-39-95q-40-40-96-40q-55 0-95 40q-40 40-40 95z" transform="translate(190 70) scale(0.0137 -0.0137)" fill="#1f3a5f"/><path d="M0 0m365 845h570v-160h-570v-520h264q148 0 250 3q101 2 161 12v-180h-880q11 60 13 174q2 113 2 261v590q0 148-2 262q-2 113-13 173h850v-165h-645zM1160 0m1050 0h-185q0 67 0 147q0 79 0 158q0 78 0 143q0 65 0 102q0 125-22 194q-22 68-66 95q-44 26-112 26q-72 0-138-43q-66-43-115-108q-50-66-72-134v-580h-185q0 91 0 208q0 116 0 226q0 110 0 181q0 147-16 250q-17 103-34 155h180q8-21 16-58q7-37 14-75q7-38 10-62q95 114 192 165q97 50 203 50q160 0 245-104q85-105 85-311q0-45 0-120q0-75 0-164q0-89 0-178q0-89 0-163zM2895 0m835 960l-35-175q-50 29-126 62q-76 33-169 33q-110 0-152-42q-43-43-43-88q0-35 17-59q16-25 67-46q51-21 156-45q91-20 166-56q74-36 119-96q45-60 45-153q0-90-51-162q-52-73-139-115q-87-43-195-43q-121 0-223 35q-103 34-162 80l50 180q68-61 165-98q96-37 175-37q88 0 144 42q56 41 56 93q0 38-22 70q-22 31-81 60q-60 28-172 55q-121 30-185 73q-64 43-87 97q-23 53-23 115q0 35 18 85q18 50 61 100q42 49 117 82q75 33 189 33q109 0 189-25q79-26 131-55zM3860 0m760 215v-160q-69-44-132-62q-63-18-116-18q-78 0-142 26q-64 25-102 90q-38 64-38 179q0 36 0 118q0 82 0 194q0 111 0 239q0 127 0 256q0 129 0 243h185q0-128 0-273q0-146 0-282q0-136 0-236q0-101 0-139q0-103 14-157q13-54 41-73q28-20 73-20q82 0 217 75zm-20 635h-710v145h710zM4695 0m95 505q0 172 67 292q66 119 177 181q110 62 241 62q138 0 243-62q104-62 163-181q59-120 59-292q0-172-66-290q-67-118-177-179q-110-61-242-61q-137 0-242 61q-105 61-164 179q-59 118-59 290zm185 0q0-175 81-272q80-98 209-98q121 0 206 98q84 97 84 272q0 176-80 276q-81 99-210 99q-121 0-205-99q-85-100-85-276zM5835 0m340 0h-185v615q0 147-16 250q-17 103-34 155h180q8-21 16-58q7-37 14-75q7-38 10-62q73 104 165 160q92 55 160 55q84 0 135-47q50-48 73-124q22-76 22-164l-160-35q0 75-28 133q-28 57-87 57q-42 0-95-41q-54-42-101-106q-47-65-69-133zM6725 0m185 790q0 56 40 96q40 39 95 39q56 0 96-39q39-40 39-96q0-55-39-95q-40-40-96-40q-55 0-95 40q-40 40-40 95zm0-680q0 56 40 96q40 39 95 39q56 0 96-39q39-40 39-96q0-55-39-95q-40-40-96-40q-55 0-95 40q-40 40-40 95zM7915 0m1125 395h-190v-395h-190v395h-655v155l655 930h190v-930h190zm-380 842l-482-687h482zM9115 0m910 715q0 221-35 353q-36 131-105 189q-69 58-170 58q-145 0-227-132q-83-132-83-438q0-220 37-351q36-132 105-190q69-59 168-59q144 0 227 133q83 132 83 437zm200 25q0-221-40-368q-40-148-111-235q-71-87-165-124q-95-38-204-38q-144 0-257 69q-113 68-178 231q-65 162-65 445q0 282 70 450q70 167 188 241q117 74 262 74q145 0 258-72q113-73 178-236q64-164 64-437zM10315 0m910 715q0 221-35 353q-36 131-105 189q-69 58-170 58q-145 0-227-132q-83-132-83-438q0-220 37-351q36-132 105-190q69-59 168-59q144 0 227 133q83 132 83 437zm200 25q0-221-40-368q-40-148-111-235q-71-87-165-124q-95-38-204-38q-144 0-257 69q-113 68-178 231q-65 162-65 445q0 282 70 450q70 167 188 241q117 74 262 74q145 0 258-72q113-73 178-236q64-164 64-437zM12065 0m840 1600h150l-830-1845h-150zM13615 0m1125 395h-190v-395h-190v395h-655v155l655 930h190v-930h190zm-380 842l-482-687h482zM15365 0m120 480v150h960v-150zm0 350v150h960v-150zM17115 0m220 0v170h315v1090l-300-172l-25 180l345 212h170v-1310h315v-170zM18315 0m910 715q0 221-35 353q-36 131-105 189q-69 58-170 58q-145 0-227-132q-83-132-83-438q0-220 37-351q36-132 105-190q69-59 168-59q144 0 227 133q83 132 83 437zm200 25q0-221-40-368q-40-148-111-235q-71-87-165-124q-95-38-204-38q-144 0-257 69q-113 68-178 231q-65 162-65 445q0 282 70 450q70 167 188 241q117 74 262 74q145 0 258-72q113-73 178-236q64-164 64-437zM19515 0m910 715q0 221-35 353q-36 131-105 189q-69 58-170 58q-145 0-227-132q-83-132-83-438q0-220 37-351q36-132 105-190q69-59 168-59q144 0 227 133q83 132 83 437zm200 25q0-221-40-368q-40-148-111-235q-71-87-165-124q-95-38-204-38q-144 0-257 69q-113 68-178 231q-65 162-65 445q0 282 70 450q70 167 188 241q117 74 262 74q145 0 258-72q113-73 178-236q64-164 64-437zM21265 0m925 85q-76-57-154-83q-78-27-191-27q-134 0-244 63q-110 62-175 178q-66 115-66 274q0 151 64 276q63 125 180 200q117 74 276 74q100 0 173-23q72-24 127-62l-35-180q-67 50-135 75q-68 25-145 25q-133 0-224-99q-91-99-91-276q0-161 85-260q85-100 230-100q90 0 165 31q75 31 140 89zM22285 0m945 660v-660h-185v570q0 124-13 188q-13 63-44 85q-32 22-88 22q-73 0-144-57q-71-58-111-148v-660h-185v615q0 147-17 250q-17 103-33 155h180q11-31 19-75q8-44 13-80q92 106 172 141q80 34 166 34q98 0 160-51q61-51 86-117q94 101 177 135q83 33 162 33q152 0 211-97q59-98 59-283v-660h-185v550q0 129-13 197q-13 68-44 93q-32 25-88 25q-73 0-142-55q-69-56-113-150zM23970 0m761 797v-117h-672v110q71 48 155 117q83 69 158 148q75 79 123 158q47 79 47 146q0 92-62 131q-62 38-138 38q-64 0-132-33q-69-34-116-87l-32 110q43 55 130 91q87 36 175 36q84 0 156-33q72-34 116-95q43-61 43-145q0-82-45-166q-45-84-114-162q-70-79-144-145q-74-66-131-112h178q104 0 184 2q79 1 121 8z" transform="translate(190 122) scale(0.0156 -0.0156)" fill="#1f3a5f"/><path d="M40 250L200 250L120 170Z" fill="#fff" stroke="#1f3a5f" stroke-width="2.5" stroke-linejoin="round" stroke-linecap="round"/><path d="M40 250L120 250L120 170Z" fill="#cfe0f3" stroke="#1f3a5f" stroke-width="2.5" stroke-linejoin="round" stroke-linecap="round"/><path d="M0 0m175 455v545q0 147-2 274q-2 126-13 186q43 3 125 6q82 2 173 3q90 1 157 1q64 0 154-14q89-14 184-55q95-41 178-121q82-81 133-212q51-132 51-328q0-178-46-306q-46-129-123-215q-77-86-171-136q-95-50-193-71q-99-22-187-22q-46 0-123 2q-78 1-162 4q-84 2-150 4q11 60 13 184q2 123 2 271zm190 850v-1140q35-3 92-6q57-4 128-4q101 0 196 31q95 30 172 97q77 67 122 175q45 108 45 262q0 224-72 353q-73 128-193 183q-121 54-265 54q-49 0-118-1q-69-2-107-4zM1435 0m989 485h-744v140h565q0 129-70 197q-71 68-180 68q-131 0-205-93q-75-93-75-292q0-185 91-275q90-90 229-90q97 0 191 23q93 22 184 77l20-165q-106-55-205-77q-99-23-215-23q-127 0-236 59q-110 59-177 175q-67 116-67 286q0 166 59 288q58 122 166 190q107 67 255 67q124 0 205-42q80-42 126-112q46-70 65-154q19-85 19-169q0-13 0-38q0-26-1-40zM2530 0m1050 0h-185q0 67 0 147q0 79 0 158q0 78 0 143q0 65 0 102q0 125-22 194q-22 68-66 95q-44 26-112 26q-72 0-138-43q-66-43-115-108q-50-66-72-134v-580h-185q0 91 0 208q0 116 0 226q0 110 0 181q0 147-16 250q-17 103-34 155h180q8-21 16-58q7-37 14-75q7-38 10-62q95 114 192 165q97 50 203 50q160 0 245-104q85-105 85-311q0-45 0-120q0-75 0-164q0-89 0-178q0-89 0-163zM4265 0m945 660v-660h-185v570q0 124-13 188q-13 63-44 85q-32 22-88 22q-73 0-144-57q-71-58-111-148v-660h-185v615q0 147-17 250q-17 103-33 155h180q11-31 19-75q8-44 13-80q92 106 172 141q80 34 166 34q98 0 160-51q61-51 86-117q94 101 177 135q83 33 162 33q152 0 211-97q59-98 59-283v-660h-185v550q0 129-13 197q-13 68-44 93q-32 25-88 25q-73 0-142-55q-69-56-113-150zM5950 0m989 485h-744v140h565q0 129-70 197q-71 68-180 68q-131 0-205-93q-75-93-75-292q0-185 91-275q90-90 229-90q97 0 191 23q93 22 184 77l20-165q-106-55-205-77q-99-23-215-23q-127 0-236 59q-110 59-177 175q-67 116-67 286q0 166 59 288q58 122 166 190q107 67 255 67q124 0 205-42q80-42 126-112q46-70 65-154q19-85 19-169q0-13 0-38q0-26-1-40zM7045 0m375 1600v-1125q0-64 3-155q2-91 7-178q4-87 10-142h-205v1130q0 293-20 470zM7610 0m375 1600v-1125q0-64 3-155q2-91 7-178q4-87 10-142h-205v1130q0 293-20 470zM8175 0m1055 0h-175q-14 32-24 94q-11 61-16 127q-5 65-5 109v80q-39-103-100-203q-61-101-143-166q-82-66-187-66q-126 0-213 112q-87 111-87 323q0 119 32 232q32 112 98 202q66 90 168 143q102 53 242 53q97 0 183-12q86-13 162-33v-465q0-189 18-317q18-129 47-213zm-250 735v127q-25 6-62 12q-38 6-113 6q-130 0-204-67q-75-68-105-175q-31-107-31-228q0-116 43-190q43-75 102-75q53 0 106 47q53 46 101 120q47 73 84 155q36 81 58 153q21 72 21 115zM9325 0m1050 0h-185q0 67 0 147q0 79 0 158q0 78 0 143q0 65 0 102q0 125-22 194q-22 68-66 95q-44 26-112 26q-72 0-138-43q-66-43-115-108q-50-66-72-134v-580h-185q0 91 0 208q0 116 0 226q0 110 0 181q0 147-16 250q-17 103-34 155h180q8-21 16-58q7-37 14-75q7-38 10-62q95 114 192 165q97 50 203 50q160 0 245-104q85-105 85-311q0-45 0-120q0-75 0-164q0-89 0-178q0-89 0-163zM10510 0m835 960l-35-175q-50 29-126 62q-76 33-169 33q-110 0-152-42q-43-43-43-88q0-35 17-59q16-25 67-46q51-21 156-45q91-20 166-56q74-36 119-96q45-60 45-153q0-90-51-162q-52-73-139-115q-87-43-195-43q-121 0-223 35q-103 34-162 80l50 180q68-61 165-98q96-37 175-37q88 0 144 42q56 41 56 93q0 38-22 70q-22 31-81 60q-60 28-172 55q-121 30-185 73q-64 43-87 97q-23 53-23 115q0 35 18 85q18 50 61 100q42 49 117 82q75 33 189 33q109 0 189-25q79-26 131-55zM11475 0m760 215v-160q-69-44-132-62q-63-18-116-18q-78 0-142 26q-64 25-102 90q-38 64-38 179q0 36 0 118q0 82 0 194q0 111 0 239q0 127 0 256q0 129 0 243h185q0-128 0-273q0-146 0-282q0-136 0-236q0-101 0-139q0-103 14-157q13-54 41-73q28-20 73-20q82 0 217 75zm-20 635h-710v145h710zM12310 0m95 505q0 172 67 292q66 119 177 181q110 62 241 62q138 0 243-62q104-62 163-181q59-120 59-292q0-172-66-290q-67-118-177-179q-110-61-242-61q-137 0-242 61q-105 61-164 179q-59 118-59 290zm185 0q0-175 81-272q80-98 209-98q121 0 206 98q84 97 84 272q0 176-80 276q-81 99-210 99q-121 0-205-99q-85-100-85-276zM13450 0m340 0h-185v615q0 147-16 250q-17 103-34 155h180q8-21 16-58q7-37 14-75q7-38 10-62q73 104 165 160q92 55 160 55q84 0 135-47q50-48 73-124q22-76 22-164l-160-35q0 75-28 133q-28 57-87 57q-42 0-95-41q-54-42-101-106q-47-65-69-133zM14340 0m1055 0h-175q-14 32-24 94q-11 61-16 127q-5 65-5 109v80q-39-103-100-203q-61-101-143-166q-82-66-187-66q-126 0-213 112q-87 111-87 323q0 119 32 232q32 112 98 202q66 90 168 143q102 53 242 53q97 0 183-12q86-13 162-33v-465q0-189 18-317q18-129 47-213zm-250 735v127q-25 6-62 12q-38 6-113 6q-130 0-204-67q-75-68-105-175q-31-107-31-228q0-116 43-190q43-75 102-75q53 0 106 47q53 46 101 120q47 73 84 155q36 81 58 153q21 72 21 115zM16040 0m760 215v-160q-69-44-132-62q-63-18-116-18q-78 0-142 26q-64 25-102 90q-38 64-38 179q0 36 0 118q0 82 0 194q0 111 0 239q0 127 0 256q0 129 0 243h185q0-128 0-273q0-146 0-282q0-136 0-236q0-101 0-139q0-103 14-157q13-54 41-73q28-20 73-20q82 0 217 75zm-20 635h-710v145h710zM16875 0m1055 0h-175q-14 32-24 94q-11 61-16 127q-5 65-5 109v80q-39-103-100-203q-61-101-143-166q-82-66-187-66q-126 0-213 112q-87 111-87 323q0 119 32 232q32 112 98 202q66 90 168 143q102 53 242 53q97 0 183-12q86-13 162-33v-465q0-189 18-317q18-129 47-213zm-250 735v127q-25 6-62 12q-38 6-113 6q-130 0-204-67q-75-68-105-175q-31-107-31-228q0-116 43-190q43-75 102-75q53 0 106 47q53 46 101 120q47 73 84 155q36 81 58 153q21 72 21 115zm-130 610q0 56 38 96q37 39 92 39q56 0 93-39q37-40 37-96q0-55-37-95q-37-40-93-40q-55 0-92 40q-38 40-38 95zm-420 0q0 56 38 96q37 39 92 39q56 0 93-39q37-40 37-96q0-55-37-95q-37-40-93-40q-55 0-92 40q-38 40-38 95zM18025 0m925 85q-76-57-154-83q-78-27-191-27q-134 0-244 63q-110 62-175 178q-66 115-66 274q0 151 64 276q63 125 180 200q117 74 276 74q100 0 173-23q72-24 127-62l-35-180q-67 50-135 75q-68 25-145 25q-133 0-224-99q-91-99-91-276q0-161 85-260q85-100 230-100q90 0 165 31q75 31 140 89zM19045 0m330 0h-185q0 121 0 258q0 136 0 272q0 136 0 257q0 120 0 210q0 90 0 133q0 161-2 284q-2 122-13 186h200zm405 1020h250l-549-496l-156 26zm-430-470l105 110l605-660h-245zM20080 0m989 485h-744v140h565q0 129-70 197q-71 68-180 68q-131 0-205-93q-75-93-75-292q0-185 91-275q90-90 229-90q97 0 191 23q93 22 184 77l20-165q-106-55-205-77q-99-23-215-23q-127 0-236 59q-110 59-177 175q-67 116-67 286q0 166 59 288q58 122 166 190q107 67 255 67q124 0 205-42q80-42 126-112q46-70 65-154q19-85 19-169q0-13 0-38q0-26-1-40zM21175 0m340 0h-185v615q0 147-16 250q-17 103-34 155h180q8-21 16-58q7-37 14-75q7-38 10-62q73 104 165 160q92 55 160 55q84 0 135-47q50-48 73-124q22-76 22-164l-160-35q0 75-28 133q-28 57-87 57q-42 0-95-41q-54-42-101-106q-47-65-69-133zM22615 0m330 580v-580h-185q0 121 0 258q0 136 0 272q0 136 0 257q0 121 0 211q0 89 0 132q0 161-2 284q-2 122-13 186h200q0-117 0-245q0-129 0-244q0-115 0-191q0-77 0-90q74 104 175 157q100 53 205 53q160 0 245-104q85-105 85-311q0-45 0-120q0-75 0-164q0-89 0-178q0-89 0-163h-185q0 67 0 147q0 79 0 158q0 78 0 143q0 65 0 102q0 125-22 194q-22 68-66 95q-45 26-112 26q-72 0-138-43q-66-43-115-108q-50-66-72-134zM23790 0m1055 0h-175q-14 32-24 94q-11 61-16 127q-5 65-5 109v80q-39-103-100-203q-61-101-143-166q-82-66-187-66q-126 0-213 112q-87 111-87 323q0 119 32 232q32 112 98 202q66 90 168 143q102 53 242 53q97 0 183-12q86-13 162-33v-465q0-189 18-317q18-129 47-213zm-250 735v127q-25 6-62 12q-38 6-113 6q-130 0-204-67q-75-68-105-175q-31-107-31-228q0-116 43-190q43-75 102-75q53 0 106 47q53 46 101 120q47 73 84 155q36 81 58 153q21 72 21 115zM24940 0m375 1600v-1125q0-64 3-155q2-91 7-178q4-87 10-142h-205v1130q0 293-20 470zM25505 0m840 1020h210q-28-57-58-124q-30-68-55-129q-26-62-42-102q-14-35-44-110q-30-75-68-171q-38-97-78-197q-40-101-75-187h-190q-33 82-71 180q-39 97-77 193q-38 95-69 173q-31 77-48 119q-16 41-42 102q-26 61-55 129q-30 67-58 124h210l305-820zM26575 0m1055 0h-175q-14 32-24 94q-11 61-16 127q-5 65-5 109v80q-39-103-100-203q-61-101-143-166q-82-66-187-66q-126 0-213 112q-87 111-87 323q0 119 32 232q32 112 98 202q66 90 168 143q102 53 242 53q97 0 183-12q86-13 162-33v-465q0-189 18-317q18-129 47-213zm-250 735v127q-25 6-62 12q-38 6-113 6q-130 0-204-67q-75-68-105-175q-31-107-31-228q0-116 43-190q43-75 102-75q53 0 106 47q53 46 101 120q47 73 84 155q36 81 58 153q21 72 21 115zM28275 0m1030 1600v-1070q0-189 22-317q21-129 53-213h-180q-11 26-26 78q-16 52-29 107q-71-101-163-155q-92-55-202-55q-122 0-212 60q-90 60-139 170q-49 109-49 255q0 177 63 307q63 130 171 202q107 71 241 71q64 0 136-26q71-26 129-59v280q0 120-5 211q-6 91-20 154zm-185-1200v395q-74 40-131 58q-58 17-134 17q-76 0-142-45q-66-46-107-131q-41-85-41-204q0-174 60-264q60-91 190-91q61 0 121 39q59 38 108 99q49 61 76 127zM29465 0m989 485h-744v140h565q0 129-70 197q-71 68-180 68q-131 0-205-93q-75-93-75-292q0-185 91-275q90-90 229-90q97 0 191 23q93 22 184 77l20-165q-106-55-205-77q-99-23-215-23q-127 0-236 59q-110 59-177 175q-67 116-67 286q0 166 59 288q58 122 166 190q107 67 255 67q124 0 205-42q80-42 126-112q46-70 65-154q19-85 19-169q0-13 0-38q0-26-1-40zM30560 0m1050 0h-185q0 67 0 147q0 79 0 158q0 78 0 143q0 65 0 102q0 125-22 194q-22 68-66 95q-44 26-112 26q-72 0-138-43q-66-43-115-108q-50-66-72-134v-580h-185q0 91 0 208q0 116 0 226q0 110 0 181q0 147-16 250q-17 103-34 155h180q8-21 16-58q7-37 14-75q7-38 10-62q95 114 192 165q97 50 203 50q160 0 245-104q85-105 85-311q0-45 0-120q0-75 0-164q0-89 0-178q0-89 0-163zM32295 0m835 960l-35-175q-50 29-126 62q-76 33-169 33q-110 0-152-42q-43-43-43-88q0-35 17-59q16-25 67-46q51-21 156-45q91-20 166-56q74-36 119-96q45-60 45-153q0-90-51-162q-52-73-139-115q-87-43-195-43q-121 0-223 35q-103 34-162 80l50 180q68-61 165-98q96-37 175-37q88 0 144 42q56 41 56 93q0 38-22 70q-22 31-81 60q-60 28-172 55q-121 30-185 73q-64 43-87 97q-23 53-23 115q0 35 18 85q18 50 61 100q42 49 117 82q75 33 189 33q109 0 189-25q79-26 131-55zM33260 0m760 215v-160q-69-44-132-62q-63-18-116-18q-78 0-142 26q-64 25-102 90q-38 64-38 179q0 36 0 118q0 82 0 194q0 111 0 239q0 127 0 256q0 129 0 243h185q0-128 0-273q0-146 0-282q0-136 0-236q0-101 0-139q0-103 14-157q13-54 41-73q28-20 73-20q82 0 217 75zm-20 635h-710v145h710zM34095 0m95 505q0 172 67 292q66 119 177 181q110 62 241 62q138 0 243-62q104-62 163-181q59-120 59-292q0-172-66-290q-67-118-177-179q-110-61-242-61q-137 0-242 61q-105 61-164 179q-59 118-59 290zm185 0q0-175 81-272q80-98 209-98q121 0 206 98q84 97 84 272q0 176-80 276q-81 99-210 99q-121 0-205-99q-85-100-85-276zM35235 0m340 0h-185v615q0 147-16 250q-17 103-34 155h180q8-21 16-58q7-37 14-75q7-38 10-62q73 104 165 160q92 55 160 55q84 0 135-47q50-48 73-124q22-76 22-164l-160-35q0 75-28 133q-28 57-87 57q-42 0-95-41q-54-42-101-106q-47-65-69-133zM36125 0m1055 0h-175q-14 32-24 94q-11 61-16 127q-5 65-5 109v80q-39-103-100-203q-61-101-143-166q-82-66-187-66q-126 0-213 112q-87 111-87 323q0 119 32 232q32 112 98 202q66 90 168 143q102 53 242 53q97 0 183-12q86-13 162-33v-465q0-189 18-317q18-129 47-213zm-250 735v127q-25 6-62 12q-38 6-113 6q-130 0-204-67q-75-68-105-175q-31-107-31-228q0-116 43-190q43-75 102-75q53 0 106 47q53 46 101 120q47 73 84 155q36 81 58 153q21 72 21 115zM37275 0m185 790q0 56 40 96q40 39 95 39q56 0 96-39q39-40 39-96q0-55-39-95q-40-40-96-40q-55 0-95 40q-40 40-40 95zm0-680q0 56 40 96q40 39 95 39q56 0 96-39q39-40 39-96q0-55-39-95q-40-40-96-40q-55 0-95 40q-40 40-40 95z" transform="translate(250 200) scale(0.0137 -0.0137)" fill="#1f3a5f"/><path d="M0 0m220 0v170h315v1090l-300-172l-25 180l345 212h170v-1310h315v-170zM1200 0m910 715q0 221-35 353q-36 131-105 189q-69 58-170 58q-145 0-227-132q-83-132-83-438q0-220 37-351q36-132 105-190q69-59 168-59q144 0 227 133q83 132 83 437zm200 25q0-221-40-368q-40-148-111-235q-71-87-165-124q-95-38-204-38q-144 0-257 69q-113 68-178 231q-65 162-65 445q0 282 70 450q70 167 188 241q117 74 262 74q145 0 258-72q113-73 178-236q64-164 64-437zM2400 0m910 715q0 221-35 353q-36 131-105 189q-69 58-170 58q-145 0-227-132q-83-132-83-438q0-220 37-351q36-132 105-190q69-59 168-59q144 0 227 133q83 132 83 437zm200 25q0-221-40-368q-40-148-111-235q-71-87-165-124q-95-38-204-38q-144 0-257 69q-113 68-178 231q-65 162-65 445q0 282 70 450q70 167 188 241q117 74 262 74q145 0 258-72q113-73 178-236q64-164 64-437zM4150 0m840 1600h150l-830-1845h-150zM5700 0m1080 180v-180h-960v170q81 58 175 139q94 80 185 174q91 93 166 191q74 98 119 193q45 95 45 178q0 94-41 151q-42 57-107 83q-65 26-137 26q-92 0-190-52q-98-52-165-133l-45 170q41 56 111 100q70 44 155 70q85 25 169 25q120 0 223-51q102-52 165-146q62-94 62-223q0-101-42-204q-43-104-113-204q-70-100-152-191q-83-91-165-168q-82-77-148-133h255q148 0 262 3q113 2 173 12zM7450 0m120 480v150h960v-150zm0 350v150h960v-150zM9200 0m195 685v775h805v-190q-56 12-114 16q-58 4-121 4h-385v-370q23 3 67 7q43 3 98 3q144 0 261-58q116-58 185-160q69-103 69-237q0-156-70-268q-71-112-193-172q-122-60-279-60q-116 0-205 24q-89 23-183 81l30 210q101-81 183-108q82-27 187-27q150 0 245 82q95 82 95 233q0 101-56 163q-57 61-140 89q-84 28-164 28q-79 0-150-14q-72-15-165-51zM10400 0m910 715q0 221-35 353q-36 131-105 189q-69 58-170 58q-145 0-227-132q-83-132-83-438q0-220 37-351q36-132 105-190q69-59 168-59q144 0 227 133q83 132 83 437zm200 25q0-221-40-368q-40-148-111-235q-71-87-165-124q-95-38-204-38q-144 0-257 69q-113 68-178 231q-65 162-65 445q0 282 70 450q70 167 188 241q117 74 262 74q145 0 258-72q113-73 178-236q64-164 64-437zM12150 0m925 85q-76-57-154-83q-78-27-191-27q-134 0-244 63q-110 62-175 178q-66 115-66 274q0 151 64 276q63 125 180 200q117 74 276 74q100 0 173-23q72-24 127-62l-35-180q-67 50-135 75q-68 25-145 25q-133 0-224-99q-91-99-91-276q0-161 85-260q85-100 230-100q90 0 165 31q75 31 140 89zM13170 0m945 660v-660h-185v570q0 124-13 188q-13 63-44 85q-32 22-88 22q-73 0-144-57q-71-58-111-148v-660h-185v615q0 147-17 250q-17 103-33 155h180q11-31 19-75q8-44 13-80q92 106 172 141q80 34 166 34q98 0 160-51q61-51 86-117q94 101 177 135q83 33 162 33q152 0 211-97q59-98 59-283v-660h-185v550q0 129-13 197q-13 68-44 93q-32 25-88 25q-73 0-142-55q-69-56-113-150zM14855 0m761 797v-117h-672v110q71 48 155 117q83 69 158 148q75 79 123 158q47 79 47 146q0 92-62 131q-62 38-138 38q-64 0-132-33q-69-34-116-87l-32 110q43 55 130 91q87 36 175 36q84 0 156-33q72-34 116-95q43-61 43-145q0-82-45-166q-45-84-114-162q-70-79-144-145q-74-66-131-112h178q104 0 184 2q79 1 121 8z" transform="translate(250 245) scale(0.0156 -0.0156)" fill="#1f3a5f"/><path d="M63.4 365L176.6 365L120 308.4Z" fill="#cfe0f3" stroke="#1f3a5f" stroke-width="2.5" stroke-linejoin="round" stroke-linecap="round"/><path d="M120 308.4L120 365" fill="none" stroke="#2b6cb0" stroke-width="2.5" stroke-linejoin="round" stroke-linecap="round" stroke-dasharray="10 8"/><path d="M0 0m175 455v545q0 147-2 274q-2 126-13 186q43 3 125 6q82 2 173 3q90 1 157 1q64 0 154-14q89-14 184-55q95-41 178-121q82-81 133-212q51-132 51-328q0-178-46-306q-46-129-123-215q-77-86-171-136q-95-50-193-71q-99-22-187-22q-46 0-123 2q-78 1-162 4q-84 2-150 4q11 60 13 184q2 123 2 271zm190 850v-1140q35-3 92-6q57-4 128-4q101 0 196 31q95 30 172 97q77 67 122 175q45 108 45 262q0 224-72 353q-73 128-193 183q-121 54-265 54q-49 0-118-1q-69-2-107-4zM1435 0m989 485h-744v140h565q0 129-70 197q-71 68-180 68q-131 0-205-93q-75-93-75-292q0-185 91-275q90-90 229-90q97 0 191 23q93 22 184 77l20-165q-106-55-205-77q-99-23-215-23q-127 0-236 59q-110 59-177 175q-67 116-67 286q0 166 59 288q58 122 166 190q107 67 255 67q124 0 205-42q80-42 126-112q46-70 65-154q19-85 19-169q0-13 0-38q0-26-1-40zM3080 0m760 215v-160q-69-44-132-62q-63-18-116-18q-78 0-142 26q-64 25-102 90q-38 64-38 179q0 36 0 118q0 82 0 194q0 111 0 239q0 127 0 256q0 129 0 243h185q0-128 0-273q0-146 0-282q0-136 0-236q0-101 0-139q0-103 14-157q13-54 41-73q28-20 73-20q82 0 217 75zm-20 635h-710v145h710zM3915 0m840 1020h210q-28-57-58-124q-30-68-55-129q-26-62-42-102q-14-35-44-110q-30-75-68-171q-38-97-78-197q-40-101-75-187h-190q-33 82-71 180q-39 97-77 193q-38 95-69 173q-31 77-48 119q-16 41-42 102q-26 61-55 129q-30 67-58 124h210l305-820zM4985 0m1055 0h-175q-14 32-24 94q-11 61-16 127q-5 65-5 109v80q-39-103-100-203q-61-101-143-166q-82-66-187-66q-126 0-213 112q-87 111-87 323q0 119 32 232q32 112 98 202q66 90 168 143q102 53 242 53q97 0 183-12q86-13 162-33v-465q0-189 18-317q18-129 47-213zm-250 735v127q-25 6-62 12q-38 6-113 6q-130 0-204-67q-75-68-105-175q-31-107-31-228q0-116 43-190q43-75 102-75q53 0 106 47q53 46 101 120q47 73 84 155q36 81 58 153q21 72 21 115zm-98 650q0 45-28 78q-29 32-82 32q-52 0-81-32q-29-33-29-78q0-45 29-77q29-33 81-33q53 0 82 33q28 32 28 77zm-325 0q0 90 63 153q62 62 152 62q90 0 153-62q62-63 62-153q0-90-62-152q-63-63-153-63q-90 0-152 63q-63 62-63 152zM6685 0m835 960l-35-175q-50 29-126 62q-76 33-169 33q-110 0-152-42q-43-43-43-88q0-35 17-59q16-25 67-46q51-21 156-45q91-20 166-56q74-36 119-96q45-60 45-153q0-90-51-162q-52-73-139-115q-87-43-195-43q-121 0-223 35q-103 34-162 80l50 180q68-61 165-98q96-37 175-37q88 0 144 42q56 41 56 93q0 38-22 70q-22 31-81 60q-60 28-172 55q-121 30-185 73q-64 43-87 97q-23 53-23 115q0 35 18 85q18 50 61 100q42 49 117 82q75 33 189 33q109 0 189-25q79-26 131-55zM7650 0m945 660v-660h-185v570q0 124-13 188q-13 63-44 85q-32 22-88 22q-73 0-144-57q-71-58-111-148v-660h-185v615q0 147-17 250q-17 103-33 155h180q11-31 19-75q8-44 13-80q92 106 172 141q80 34 166 34q98 0 160-51q61-51 86-117q94 101 177 135q83 33 162 33q152 0 211-97q59-98 59-283v-660h-185v550q0 129-13 197q-13 68-44 93q-32 25-88 25q-73 0-142-55q-69-56-113-150zM9335 0m1055 0h-175q-14 32-24 94q-11 61-16 127q-5 65-5 109v80q-39-103-100-203q-61-101-143-166q-82-66-187-66q-126 0-213 112q-87 111-87 323q0 119 32 232q32 112 98 202q66 90 168 143q102 53 242 53q97 0 183-12q86-13 162-33v-465q0-189 18-317q18-129 47-213zm-250 735v127q-25 6-62 12q-38 6-113 6q-130 0-204-67q-75-68-105-175q-31-107-31-228q0-116 43-190q43-75 102-75q53 0 106 47q53 46 101 120q47 73 84 155q36 81 58 153q21 72 21 115zm-98 650q0 45-28 78q-29 32-82 32q-52 0-81-32q-29-33-29-78q0-45 29-77q29-33 81-33q53 0 82 33q28 32 28 77zm-325 0q0 90 63 153q62 62 152 62q90 0 153-62q62-63 62-153q0-90-62-152q-63-63-153-63q-90 0-152 63q-63 62-63 152zM11035 0m760 215v-160q-69-44-132-62q-63-18-116-18q-78 0-142 26q-64 25-102 90q-38 64-38 179q0 36 0 118q0 82 0 194q0 111 0 239q0 127 0 256q0 129 0 243h185q0-128 0-273q0-146 0-282q0-136 0-236q0-101 0-139q0-103 14-157q13-54 41-73q28-20 73-20q82 0 217 75zm-20 635h-710v145h710zM11870 0m1055 0h-175q-14 32-24 94q-11 61-16 127q-5 65-5 109v80q-39-103-100-203q-61-101-143-166q-82-66-187-66q-126 0-213 112q-87 111-87 323q0 119 32 232q32 112 98 202q66 90 168 143q102 53 242 53q97 0 183-12q86-13 162-33v-465q0-189 18-317q18-129 47-213zm-250 735v127q-25 6-62 12q-38 6-113 6q-130 0-204-67q-75-68-105-175q-31-107-31-228q0-116 43-190q43-75 102-75q53 0 106 47q53 46 101 120q47 73 84 155q36 81 58 153q21 72 21 115zm-130 610q0 56 38 96q37 39 92 39q56 0 93-39q37-40 37-96q0-55-37-95q-37-40-93-40q-55 0-92 40q-38 40-38 95zm-420 0q0 56 38 96q37 39 92 39q56 0 93-39q37-40 37-96q0-55-37-95q-37-40-93-40q-55 0-92 40q-38 40-38 95zM13020 0m925 85q-76-57-154-83q-78-27-191-27q-134 0-244 63q-110 62-175 178q-66 115-66 274q0 151 64 276q63 125 180 200q117 74 276 74q100 0 173-23q72-24 127-62l-35-180q-67 50-135 75q-68 25-145 25q-133 0-224-99q-91-99-91-276q0-161 85-260q85-100 230-100q90 0 165 31q75 31 140 89zM14040 0m330 0h-185q0 121 0 258q0 136 0 272q0 136 0 257q0 120 0 210q0 90 0 133q0 161-2 284q-2 122-13 186h200zm405 1020h250l-549-496l-156 26zm-430-470l105 110l605-660h-245zM15075 0m989 485h-744v140h565q0 129-70 197q-71 68-180 68q-131 0-205-93q-75-93-75-292q0-185 91-275q90-90 229-90q97 0 191 23q93 22 184 77l20-165q-106-55-205-77q-99-23-215-23q-127 0-236 59q-110 59-177 175q-67 116-67 286q0 166 59 288q58 122 166 190q107 67 255 67q124 0 205-42q80-42 126-112q46-70 65-154q19-85 19-169q0-13 0-38q0-26-1-40zM16170 0m340 0h-185v615q0 147-16 250q-17 103-34 155h180q8-21 16-58q7-37 14-75q7-38 10-62q73 104 165 160q92 55 160 55q84 0 135-47q50-48 73-124q22-76 22-164l-160-35q0 75-28 133q-28 57-87 57q-42 0-95-41q-54-42-101-106q-47-65-69-133zM17610 0m1030 1600v-1070q0-189 22-317q21-129 53-213h-180q-11 26-26 78q-16 52-29 107q-71-101-163-155q-92-55-202-55q-122 0-212 60q-90 60-139 170q-49 109-49 255q0 177 63 307q63 130 171 202q107 71 241 71q64 0 136-26q71-26 129-59v280q0 120-5 211q-6 91-20 154zm-185-1200v395q-74 40-131 58q-58 17-134 17q-76 0-142-45q-66-46-107-131q-41-85-41-204q0-174 60-264q60-91 190-91q61 0 121 39q59 38 108 99q49 61 76 127zM18800 0m989 485h-744v140h565q0 129-70 197q-71 68-180 68q-131 0-205-93q-75-93-75-292q0-185 91-275q90-90 229-90q97 0 191 23q93 22 184 77l20-165q-106-55-205-77q-99-23-215-23q-127 0-236 59q-110 59-177 175q-67 116-67 286q0 166 59 288q58 122 166 190q107 67 255 67q124 0 205-42q80-42 126-112q46-70 65-154q19-85 19-169q0-13 0-38q0-26-1-40zM19895 0m1050 0h-185q0 67 0 147q0 79 0 158q0 78 0 143q0 65 0 102q0 125-22 194q-22 68-66 95q-44 26-112 26q-72 0-138-43q-66-43-115-108q-50-66-72-134v-580h-185q0 91 0 208q0 116 0 226q0 110 0 181q0 147-16 250q-17 103-34 155h180q8-21 16-58q7-37 14-75q7-38 10-62q95 114 192 165q97 50 203 50q160 0 245-104q85-105 85-311q0-45 0-120q0-75 0-164q0-89 0-178q0-89 0-163zM21630 0m945 660v-660h-185v570q0 124-13 188q-13 63-44 85q-32 22-88 22q-73 0-144-57q-71-58-111-148v-660h-185v615q0 147-17 250q-17 103-33 155h180q11-31 19-75q8-44 13-80q92 106 172 141q80 34 166 34q98 0 160-51q61-51 86-117q94 101 177 135q83 33 162 33q152 0 211-97q59-98 59-283v-660h-185v550q0 129-13 197q-13 68-44 93q-32 25-88 25q-73 0-142-55q-69-56-113-150zM23315 0m989 485h-744v140h565q0 129-70 197q-71 68-180 68q-131 0-205-93q-75-93-75-292q0-185 91-275q90-90 229-90q97 0 191 23q93 22 184 77l20-165q-106-55-205-77q-99-23-215-23q-127 0-236 59q-110 59-177 175q-67 116-67 286q0 166 59 288q58 122 166 190q107 67 255 67q124 0 205-42q80-42 126-112q46-70 65-154q19-85 19-169q0-13 0-38q0-26-1-40zM24410 0m375 1600v-1125q0-64 3-155q2-91 7-178q4-87 10-142h-205v1130q0 293-20 470zM24975 0m375 1600v-1125q0-64 3-155q2-91 7-178q4-87 10-142h-205v1130q0 293-20 470zM25540 0m1055 0h-175q-14 32-24 94q-11 61-16 127q-5 65-5 109v80q-39-103-100-203q-61-101-143-166q-82-66-187-66q-126 0-213 112q-87 111-87 323q0 119 32 232q32 112 98 202q66 90 168 143q102 53 242 53q97 0 183-12q86-13 162-33v-465q0-189 18-317q18-129 47-213zm-250 735v127q-25 6-62 12q-38 6-113 6q-130 0-204-67q-75-68-105-175q-31-107-31-228q0-116 43-190q43-75 102-75q53 0 106 47q53 46 101 120q47 73 84 155q36 81 58 153q21 72 21 115zM26690 0m1050 0h-185q0 67 0 147q0 79 0 158q0 78 0 143q0 65 0 102q0 125-22 194q-22 68-66 95q-44 26-112 26q-72 0-138-43q-66-43-115-108q-50-66-72-134v-580h-185q0 91 0 208q0 116 0 226q0 110 0 181q0 147-16 250q-17 103-34 155h180q8-21 16-58q7-37 14-75q7-38 10-62q95 114 192 165q97 50 203 50q160 0 245-104q85-105 85-311q0-45 0-120q0-75 0-164q0-89 0-178q0-89 0-163zM27875 0m835 960l-35-175q-50 29-126 62q-76 33-169 33q-110 0-152-42q-43-43-43-88q0-35 17-59q16-25 67-46q51-21 156-45q91-20 166-56q74-36 119-96q45-60 45-153q0-90-51-162q-52-73-139-115q-87-43-195-43q-121 0-223 35q-103 34-162 80l50 180q68-61 165-98q96-37 175-37q88 0 144 42q56 41 56 93q0 38-22 70q-22 31-81 60q-60 28-172 55q-121 30-185 73q-64 43-87 97q-23 53-23 115q0 35 18 85q18 50 61 100q42 49 117 82q75 33 189 33q109 0 189-25q79-26 131-55zM28840 0m760 215v-160q-69-44-132-62q-63-18-116-18q-78 0-142 26q-64 25-102 90q-38 64-38 179q0 36 0 118q0 82 0 194q0 111 0 239q0 127 0 256q0 129 0 243h185q0-128 0-273q0-146 0-282q0-136 0-236q0-101 0-139q0-103 14-157q13-54 41-73q28-20 73-20q82 0 217 75zm-20 635h-710v145h710zM29675 0m95 505q0 172 67 292q66 119 177 181q110 62 241 62q138 0 243-62q104-62 163-181q59-120 59-292q0-172-66-290q-67-118-177-179q-110-61-242-61q-137 0-242 61q-105 61-164 179q-59 118-59 290zm185 0q0-175 81-272q80-98 209-98q121 0 206 98q84 97 84 272q0 176-80 276q-81 99-210 99q-121 0-205-99q-85-100-85-276zM30815 0m340 0h-185v615q0 147-16 250q-17 103-34 155h180q8-21 16-58q7-37 14-75q7-38 10-62q73 104 165 160q92 55 160 55q84 0 135-47q50-48 73-124q22-76 22-164l-160-35q0 75-28 133q-28 57-87 57q-42 0-95-41q-54-42-101-106q-47-65-69-133zM31705 0m1055 0h-175q-14 32-24 94q-11 61-16 127q-5 65-5 109v80q-39-103-100-203q-61-101-143-166q-82-66-187-66q-126 0-213 112q-87 111-87 323q0 119 32 232q32 112 98 202q66 90 168 143q102 53 242 53q97 0 183-12q86-13 162-33v-465q0-189 18-317q18-129 47-213zm-250 735v127q-25 6-62 12q-38 6-113 6q-130 0-204-67q-75-68-105-175q-31-107-31-228q0-116 43-190q43-75 102-75q53 0 106 47q53 46 101 120q47 73 84 155q36 81 58 153q21 72 21 115zM32855 0m185 790q0 56 40 96q40 39 95 39q56 0 96-39q39-40 39-96q0-55-39-95q-40-40-96-40q-55 0-95 40q-40 40-40 95zm0-680q0 56 40 96q40 39 95 39q56 0 96-39q39-40 39-96q0-55-39-95q-40-40-96-40q-55 0-95 40q-40 40-40 95z" transform="translate(250 322) scale(0.0137 -0.0137)" fill="#1f3a5f"/><path d="M0 0m195 685v775h805v-190q-56 12-114 16q-58 4-121 4h-385v-370q23 3 67 7q43 3 98 3q144 0 261-58q116-58 185-160q69-103 69-237q0-156-70-268q-71-112-193-172q-122-60-279-60q-116 0-205 24q-89 23-183 81l30 210q101-81 183-108q82-27 187-27q150 0 245 82q95 82 95 233q0 101-56 163q-57 61-140 89q-84 28-164 28q-79 0-150-14q-72-15-165-51zM1200 0m910 715q0 221-35 353q-36 131-105 189q-69 58-170 58q-145 0-227-132q-83-132-83-438q0-220 37-351q36-132 105-190q69-59 168-59q144 0 227 133q83 132 83 437zm200 25q0-221-40-368q-40-148-111-235q-71-87-165-124q-95-38-204-38q-144 0-257 69q-113 68-178 231q-65 162-65 445q0 282 70 450q70 167 188 241q117 74 262 74q145 0 258-72q113-73 178-236q64-164 64-437zM2950 0m840 1600h150l-830-1845h-150zM4500 0m1080 180v-180h-960v170q81 58 175 139q94 80 185 174q91 93 166 191q74 98 119 193q45 95 45 178q0 94-41 151q-42 57-107 83q-65 26-137 26q-92 0-190-52q-98-52-165-133l-45 170q41 56 111 100q70 44 155 70q85 25 169 25q120 0 223-51q102-52 165-146q62-94 62-223q0-101-42-204q-43-104-113-204q-70-100-152-191q-83-91-165-168q-82-77-148-133h255q148 0 262 3q113 2 173 12zM6250 0m120 480v150h960v-150zm0 350v150h960v-150zM8000 0m1080 180v-180h-960v170q81 58 175 139q94 80 185 174q91 93 166 191q74 98 119 193q45 95 45 178q0 94-41 151q-42 57-107 83q-65 26-137 26q-92 0-190-52q-98-52-165-133l-45 170q41 56 111 100q70 44 155 70q85 25 169 25q120 0 223-51q102-52 165-146q62-94 62-223q0-101-42-204q-43-104-113-204q-70-100-152-191q-83-91-165-168q-82-77-148-133h255q148 0 262 3q113 2 173 12zM9200 0m195 685v775h805v-190q-56 12-114 16q-58 4-121 4h-385v-370q23 3 67 7q43 3 98 3q144 0 261-58q116-58 185-160q69-103 69-237q0-156-70-268q-71-112-193-172q-122-60-279-60q-116 0-205 24q-89 23-183 81l30 210q101-81 183-108q82-27 187-27q150 0 245 82q95 82 95 233q0 101-56 163q-57 61-140 89q-84 28-164 28q-79 0-150-14q-72-15-165-51zM10950 0m925 85q-76-57-154-83q-78-27-191-27q-134 0-244 63q-110 62-175 178q-66 115-66 274q0 151 64 276q63 125 180 200q117 74 276 74q100 0 173-23q72-24 127-62l-35-180q-67 50-135 75q-68 25-145 25q-133 0-224-99q-91-99-91-276q0-161 85-260q85-100 230-100q90 0 165 31q75 31 140 89zM11970 0m945 660v-660h-185v570q0 124-13 188q-13 63-44 85q-32 22-88 22q-73 0-144-57q-71-58-111-148v-660h-185v615q0 147-17 250q-17 103-33 155h180q11-31 19-75q8-44 13-80q92 106 172 141q80 34 166 34q98 0 160-51q61-51 86-117q94 101 177 135q83 33 162 33q152 0 211-97q59-98 59-283v-660h-185v550q0 129-13 197q-13 68-44 93q-32 25-88 25q-73 0-142-55q-69-56-113-150zM13655 0m761 797v-117h-672v110q71 48 155 117q83 69 158 148q75 79 123 158q47 79 47 146q0 92-62 131q-62 38-138 38q-64 0-132-33q-69-34-116-87l-32 110q43 55 130 91q87 36 175 36q84 0 156-33q72-34 116-95q43-61 43-145q0-82-45-166q-45-84-114-162q-70-79-144-145q-74-66-131-112h178q104 0 184 2q79 1 121 8z" transform="translate(250 364) scale(0.0156 -0.0156)" fill="#1f3a5f"/><path d="M80 400L120 440L80 480L40 440Z" fill="#cfe0f3" stroke="#1f3a5f" stroke-width="2.5" stroke-linejoin="round" stroke-linecap="round"/><path d="M40 440L120 440" fill="none" stroke="#2b6cb0" stroke-width="2.5" stroke-linejoin="round" stroke-linecap="round" stroke-dasharray="10 8"/><path d="M140 480L180 440L260 440L220 480Z" fill="#cfe0f3" stroke="#1f3a5f" stroke-width="2.5" stroke-linejoin="round" stroke-linecap="round"/><path d="M180 440L220 480" fill="none" stroke="#2b6cb0" stroke-width="2.5" stroke-linejoin="round" stroke-linecap="round" stroke-dasharray="10 8"/><path d="M0 0m175 455v545q0 147-2 274q-2 126-13 186q43 3 125 6q82 2 173 3q90 1 157 1q64 0 154-14q89-14 184-55q95-41 178-121q82-81 133-212q51-132 51-328q0-178-46-306q-46-129-123-215q-77-86-171-136q-95-50-193-71q-99-22-187-22q-46 0-123 2q-78 1-162 4q-84 2-150 4q11 60 13 184q2 123 2 271zm190 850v-1140q35-3 92-6q57-4 128-4q101 0 196 31q95 30 172 97q77 67 122 175q45 108 45 262q0 224-72 353q-73 128-193 183q-121 54-265 54q-49 0-118-1q-69-2-107-4zM1435 0m989 485h-744v140h565q0 129-70 197q-71 68-180 68q-131 0-205-93q-75-93-75-292q0-185 91-275q90-90 229-90q97 0 191 23q93 22 184 77l20-165q-106-55-205-77q-99-23-215-23q-127 0-236 59q-110 59-177 175q-67 116-67 286q0 166 59 288q58 122 166 190q107 67 255 67q124 0 205-42q80-42 126-112q46-70 65-154q19-85 19-169q0-13 0-38q0-26-1-40zM3080 0m760 215v-160q-69-44-132-62q-63-18-116-18q-78 0-142 26q-64 25-102 90q-38 64-38 179q0 36 0 118q0 82 0 194q0 111 0 239q0 127 0 256q0 129 0 243h185q0-128 0-273q0-146 0-282q0-136 0-236q0-101 0-139q0-103 14-157q13-54 41-73q28-20 73-20q82 0 217 75zm-20 635h-710v145h710zM3915 0m1055 0h-175q-14 32-24 94q-11 61-16 127q-5 65-5 109v80q-39-103-100-203q-61-101-143-166q-82-66-187-66q-126 0-213 112q-87 111-87 323q0 119 32 232q32 112 98 202q66 90 168 143q102 53 242 53q97 0 183-12q86-13 162-33v-465q0-189 18-317q18-129 47-213zm-250 735v127q-25 6-62 12q-38 6-113 6q-130 0-204-67q-75-68-105-175q-31-107-31-228q0-116 43-190q43-75 102-75q53 0 106 47q53 46 101 120q47 73 84 155q36 81 58 153q21 72 21 115zm-130 610q0 56 38 96q37 39 92 39q56 0 93-39q37-40 37-96q0-55-37-95q-37-40-93-40q-55 0-92 40q-38 40-38 95zm-420 0q0 56 38 96q37 39 92 39q56 0 93-39q37-40 37-96q0-55-37-95q-37-40-93-40q-55 0-92 40q-38 40-38 95zM5065 0m925 85q-76-57-154-83q-78-27-191-27q-134 0-244 63q-110 62-175 178q-66 115-66 274q0 151 64 276q63 125 180 200q117 74 276 74q100 0 173-23q72-24 127-62l-35-180q-67 50-135 75q-68 25-145 25q-133 0-224-99q-91-99-91-276q0-161 85-260q85-100 230-100q90 0 165 31q75 31 140 89zM6085 0m330 0h-185q0 121 0 258q0 136 0 272q0 136 0 257q0 120 0 210q0 90 0 133q0 161-2 284q-2 122-13 186h200zm405 1020h250l-549-496l-156 26zm-430-470l105 110l605-660h-245zM7120 0m989 485h-744v140h565q0 129-70 197q-71 68-180 68q-131 0-205-93q-75-93-75-292q0-185 91-275q90-90 229-90q97 0 191 23q93 22 184 77l20-165q-106-55-205-77q-99-23-215-23q-127 0-236 59q-110 59-177 175q-67 116-67 286q0 166 59 288q58 122 166 190q107 67 255 67q124 0 205-42q80-42 126-112q46-70 65-154q19-85 19-169q0-13 0-38q0-26-1-40zM8215 0m340 0h-185v615q0 147-16 250q-17 103-34 155h180q8-21 16-58q7-37 14-75q7-38 10-62q73 104 165 160q92 55 160 55q84 0 135-47q50-48 73-124q22-76 22-164l-160-35q0 75-28 133q-28 57-87 57q-42 0-95-41q-54-42-101-106q-47-65-69-133zM9655 0m95 505q0 172 67 292q66 119 177 181q110 62 241 62q138 0 243-62q104-62 163-181q59-120 59-292q0-172-66-290q-67-118-177-179q-110-61-242-61q-137 0-242 61q-105 61-164 179q-59 118-59 290zm185 0q0-175 81-272q80-98 209-98q121 0 206 98q84 97 84 272q0 176-80 276q-81 99-210 99q-121 0-205-99q-85-100-85-276zM10795 0m925 85q-76-57-154-83q-78-27-191-27q-134 0-244 63q-110 62-175 178q-66 115-66 274q0 151 64 276q63 125 180 200q117 74 276 74q100 0 173-23q72-24 127-62l-35-180q-67 50-135 75q-68 25-145 25q-133 0-224-99q-91-99-91-276q0-161 85-260q85-100 230-100q90 0 165 31q75 31 140 89zM11815 0m330 0h-185q0 121 0 258q0 136 0 272q0 136 0 257q0 120 0 210q0 90 0 133q0 161-2 284q-2 122-13 186h200zm405 1020h250l-549-496l-156 26zm-430-470l105 110l605-660h-245zM12850 0m835 960l-35-175q-50 29-126 62q-76 33-169 33q-110 0-152-42q-43-43-43-88q0-35 17-59q16-25 67-46q51-21 156-45q91-20 166-56q74-36 119-96q45-60 45-153q0-90-51-162q-52-73-139-115q-87-43-195-43q-121 0-223 35q-103 34-162 80l50 180q68-61 165-98q96-37 175-37q88 0 144 42q56 41 56 93q0 38-22 70q-22 31-81 60q-60 28-172 55q-121 30-185 73q-64 43-87 97q-23 53-23 115q0 35 18 85q18 50 61 100q42 49 117 82q75 33 189 33q109 0 189-25q79-26 131-55zM13815 0m1055 0h-175q-14 32-24 94q-11 61-16 127q-5 65-5 109v80q-39-103-100-203q-61-101-143-166q-82-66-187-66q-126 0-213 112q-87 111-87 323q0 119 32 232q32 112 98 202q66 90 168 143q102 53 242 53q97 0 183-12q86-13 162-33v-465q0-189 18-317q18-129 47-213zm-250 735v127q-25 6-62 12q-38 6-113 6q-130 0-204-67q-75-68-105-175q-31-107-31-228q0-116 43-190q43-75 102-75q53 0 106 47q53 46 101 120q47 73 84 155q36 81 58 153q21 72 21 115zm-98 650q0 45-28 78q-29 32-82 32q-52 0-81-32q-29-33-29-78q0-45 29-77q29-33 81-33q53 0 82 33q28 32 28 77zm-325 0q0 90 63 153q62 62 152 62q90 0 153-62q62-63 62-153q0-90-62-152q-63-63-153-63q-90 0-152 63q-63 62-63 152zM15515 0m330 0h-185q0 121 0 258q0 136 0 272q0 136 0 257q0 120 0 210q0 90 0 133q0 161-2 284q-2 122-13 186h200zm405 1020h250l-549-496l-156 26zm-430-470l105 110l605-660h-245zM16550 0m840 1020h210q-28-57-58-124q-30-68-55-129q-26-62-42-102q-14-35-44-110q-30-75-68-171q-38-97-78-197q-40-101-75-187h-190q-33 82-71 180q-39 97-77 193q-38 95-69 173q-31 77-48 119q-16 41-42 102q-26 61-55 129q-30 67-58 124h210l305-820zM17620 0m1055 0h-175q-14 32-24 94q-11 61-16 127q-5 65-5 109v80q-39-103-100-203q-61-101-143-166q-82-66-187-66q-126 0-213 112q-87 111-87 323q0 119 32 232q32 112 98 202q66 90 168 143q102 53 242 53q97 0 183-12q86-13 162-33v-465q0-189 18-317q18-129 47-213zm-250 735v127q-25 6-62 12q-38 6-113 6q-130 0-204-67q-75-68-105-175q-31-107-31-228q0-116 43-190q43-75 102-75q53 0 106 47q53 46 101 120q47 73 84 155q36 81 58 153q21 72 21 115zM18770 0m1030 1600v-1070q0-189 22-317q21-129 53-213h-180q-11 26-26 78q-16 52-29 107q-71-101-163-155q-92-55-202-55q-122 0-212 60q-90 60-139 170q-49 109-49 255q0 177 63 307q63 130 171 202q107 71 241 71q64 0 136-26q71-26 129-59v280q0 120-5 211q-6 91-20 154zm-185-1200v395q-74 40-131 58q-58 17-134 17q-76 0-142-45q-66-46-107-131q-41-85-41-204q0-174 60-264q60-91 190-91q61 0 121 39q59 38 108 99q49 61 76 127zM19960 0m340 0h-185v615q0 147-16 250q-17 103-34 155h180q8-21 16-58q7-37 14-75q7-38 10-62q73 104 165 160q92 55 160 55q84 0 135-47q50-48 73-124q22-76 22-164l-160-35q0 75-28 133q-28 57-87 57q-42 0-95-41q-54-42-101-106q-47-65-69-133zM20850 0m1055 0h-175q-14 32-24 94q-11 61-16 127q-5 65-5 109v80q-39-103-100-203q-61-101-143-166q-82-66-187-66q-126 0-213 112q-87 111-87 323q0 119 32 232q32 112 98 202q66 90 168 143q102 53 242 53q97 0 183-12q86-13 162-33v-465q0-189 18-317q18-129 47-213zm-250 735v127q-25 6-62 12q-38 6-113 6q-130 0-204-67q-75-68-105-175q-31-107-31-228q0-116 43-190q43-75 102-75q53 0 106 47q53 46 101 120q47 73 84 155q36 81 58 153q21 72 21 115zM22000 0m760 215v-160q-69-44-132-62q-63-18-116-18q-78 0-142 26q-64 25-102 90q-38 64-38 179q0 36 0 118q0 82 0 194q0 111 0 239q0 127 0 256q0 129 0 243h185q0-128 0-273q0-146 0-282q0-136 0-236q0-101 0-139q0-103 14-157q13-54 41-73q28-20 73-20q82 0 217 75zm-20 635h-710v145h710zM22835 0m989 485h-744v140h565q0 129-70 197q-71 68-180 68q-131 0-205-93q-75-93-75-292q0-185 91-275q90-90 229-90q97 0 191 23q93 22 184 77l20-165q-106-55-205-77q-99-23-215-23q-127 0-236 59q-110 59-177 175q-67 116-67 286q0 166 59 288q58 122 166 190q107 67 255 67q124 0 205-42q80-42 126-112q46-70 65-154q19-85 19-169q0-13 0-38q0-26-1-40zM23930 0m1050 0h-185q0 67 0 147q0 79 0 158q0 78 0 143q0 65 0 102q0 125-22 194q-22 68-66 95q-44 26-112 26q-72 0-138-43q-66-43-115-108q-50-66-72-134v-580h-185q0 91 0 208q0 116 0 226q0 110 0 181q0 147-16 250q-17 103-34 155h180q8-21 16-58q7-37 14-75q7-38 10-62q95 114 192 165q97 50 203 50q160 0 245-104q85-105 85-311q0-45 0-120q0-75 0-164q0-89 0-178q0-89 0-163z" transform="translate(290 425) scale(0.0137 -0.0137)" fill="#1f3a5f"/><path d="M0 0m95 505q0 172 67 292q66 119 177 181q110 62 241 62q138 0 243-62q104-62 163-181q59-120 59-292q0-172-66-290q-67-118-177-179q-110-61-242-61q-137 0-242 61q-105 61-164 179q-59 118-59 290zm185 0q0-175 81-272q80-98 209-98q121 0 206 98q84 97 84 272q0 176-80 276q-81 99-210 99q-121 0-205-99q-85-100-85-276zM1140 0m925 85q-76-57-154-83q-78-27-191-27q-134 0-244 63q-110 62-175 178q-66 115-66 274q0 151 64 276q63 125 180 200q117 74 276 74q100 0 173-23q72-24 127-62l-35-180q-67 50-135 75q-68 25-145 25q-133 0-224-99q-91-99-91-276q0-161 85-260q85-100 230-100q90 0 165 31q75 31 140 89zM2160 0m330 580v-580h-185q0 121 0 258q0 136 0 272q0 136 0 257q0 121 0 211q0 89 0 132q0 161-2 284q-2 122-13 186h200q0-117 0-245q0-129 0-244q0-115 0-191q0-77 0-90q74 104 175 157q100 53 205 53q160 0 245-104q85-105 85-311q0-45 0-120q0-75 0-164q0-89 0-178q0-89 0-163h-185q0 67 0 147q0 79 0 158q0 78 0 143q0 65 0 102q0 125-22 194q-22 68-66 95q-45 26-112 26q-72 0-138-43q-66-43-115-108q-50-66-72-134zM3885 0m105 1020h180q11-25 22-73q11-48 18-117q71 93 165 152q94 58 205 58q114 0 200-65q85-65 133-179q47-114 47-261q0-171-61-296q-62-126-165-195q-103-69-229-69q-80 0-144 30q-65 30-136 80v-235q0-120 6-198q6-78 19-142h-210q0 126 0 273q0 147 0 288q0 140 0 251q0 110 0 163q0 187-8 319q-8 131-42 216zm235-445v-315q69-48 114-74q45-26 83-36q37-10 83-10q71 0 133 44q61 44 99 126q38 82 38 195q0 167-61 266q-61 99-169 99q-86 0-175-75q-89-75-145-220zM5055 0m1055 0h-175q-14 32-24 94q-11 61-16 127q-5 65-5 109v80q-39-103-100-203q-61-101-143-166q-82-66-187-66q-126 0-213 112q-87 111-87 323q0 119 32 232q32 112 98 202q66 90 168 143q102 53 242 53q97 0 183-12q86-13 162-33v-465q0-189 18-317q18-129 47-213zm-250 735v127q-25 6-62 12q-38 6-113 6q-130 0-204-67q-75-68-105-175q-31-107-31-228q0-116 43-190q43-75 102-75q53 0 106 47q53 46 101 120q47 73 84 155q36 81 58 153q21 72 21 115zM6205 0m340 0h-185v615q0 147-16 250q-17 103-34 155h180q8-21 16-58q7-37 14-75q7-38 10-62q73 104 165 160q92 55 160 55q84 0 135-47q50-48 73-124q22-76 22-164l-160-35q0 75-28 133q-28 57-87 57q-42 0-95-41q-54-42-101-106q-47-65-69-133zM7095 0m1055 0h-175q-14 32-24 94q-11 61-16 127q-5 65-5 109v80q-39-103-100-203q-61-101-143-166q-82-66-187-66q-126 0-213 112q-87 111-87 323q0 119 32 232q32 112 98 202q66 90 168 143q102 53 242 53q97 0 183-12q86-13 162-33v-465q0-189 18-317q18-129 47-213zm-250 735v127q-25 6-62 12q-38 6-113 6q-130 0-204-67q-75-68-105-175q-31-107-31-228q0-116 43-190q43-75 102-75q53 0 106 47q53 46 101 120q47 73 84 155q36 81 58 153q21 72 21 115zM8245 0m375 1600v-1125q0-64 3-155q2-91 7-178q4-87 10-142h-205v1130q0 293-20 470zM8810 0m375 1600v-1125q0-64 3-155q2-91 7-178q4-87 10-142h-205v1130q0 293-20 470zM9375 0m989 485h-744v140h565q0 129-70 197q-71 68-180 68q-131 0-205-93q-75-93-75-292q0-185 91-275q90-90 229-90q97 0 191 23q93 22 184 77l20-165q-106-55-205-77q-99-23-215-23q-127 0-236 59q-110 59-177 175q-67 116-67 286q0 166 59 288q58 122 166 190q107 67 255 67q124 0 205-42q80-42 126-112q46-70 65-154q19-85 19-169q0-13 0-38q0-26-1-40zM10470 0m375 1600v-1125q0-64 3-155q2-91 7-178q4-87 10-142h-205v1130q0 293-20 470zM11035 0m375 1600v-1125q0-64 3-155q2-91 7-178q4-87 10-142h-205v1130q0 293-20 470zM11600 0m95 505q0 172 67 292q66 119 177 181q110 62 241 62q138 0 243-62q104-62 163-181q59-120 59-292q0-172-66-290q-67-118-177-179q-110-61-242-61q-137 0-242 61q-105 61-164 179q-59 118-59 290zm185 0q0-175 81-272q80-98 209-98q121 0 206 98q84 97 84 272q0 176-80 276q-81 99-210 99q-121 0-205-99q-85-100-85-276zM12740 0m990 965v-940q0-176-65-285q-65-109-167-159q-102-51-213-51q-95 0-190 33q-95 33-175 87l65 155q71-51 144-83q72-32 146-32q52 0 115 27q63 26 109 92q46 65 46 181v205q-78-98-170-149q-92-51-175-51q-92 0-173 44q-81 44-131 141q-51 96-51 255q0 115 30 223q30 108 93 195q63 86 162 137q98 50 235 50q91 0 187-24q96-24 178-51zm-185-570v435q-47 18-105 29q-59 11-105 11q-109 0-176-57q-68-57-98-145q-31-88-31-183q0-123 25-193q25-70 68-98q43-29 97-29q76 0 168 60q92 60 157 170zM13865 0m340 0h-185v615q0 147-16 250q-17 103-34 155h180q8-21 16-58q7-37 14-75q7-38 10-62q73 104 165 160q92 55 160 55q84 0 135-47q50-48 73-124q22-76 22-164l-160-35q0 75-28 133q-28 57-87 57q-42 0-95-41q-54-42-101-106q-47-65-69-133zM14755 0m1055 0h-175q-14 32-24 94q-11 61-16 127q-5 65-5 109v80q-39-103-100-203q-61-101-143-166q-82-66-187-66q-126 0-213 112q-87 111-87 323q0 119 32 232q32 112 98 202q66 90 168 143q102 53 242 53q97 0 183-12q86-13 162-33v-465q0-189 18-317q18-129 47-213zm-250 735v127q-25 6-62 12q-38 6-113 6q-130 0-204-67q-75-68-105-175q-31-107-31-228q0-116 43-190q43-75 102-75q53 0 106 47q53 46 101 120q47 73 84 155q36 81 58 153q21 72 21 115zM15905 0m945 660v-660h-185v570q0 124-13 188q-13 63-44 85q-32 22-88 22q-73 0-144-57q-71-58-111-148v-660h-185v615q0 147-17 250q-17 103-33 155h180q11-31 19-75q8-44 13-80q92 106 172 141q80 34 166 34q98 0 160-51q61-51 86-117q94 101 177 135q83 33 162 33q152 0 211-97q59-98 59-283v-660h-185v550q0 129-13 197q-13 68-44 93q-32 25-88 25q-73 0-142-55q-69-56-113-150zM17590 0m945 660v-660h-185v570q0 124-13 188q-13 63-44 85q-32 22-88 22q-73 0-144-57q-71-58-111-148v-660h-185v615q0 147-17 250q-17 103-33 155h180q11-31 19-75q8-44 13-80q92 106 172 141q80 34 166 34q98 0 160-51q61-51 86-117q94 101 177 135q83 33 162 33q152 0 211-97q59-98 59-283v-660h-185v550q0 129-13 197q-13 68-44 93q-32 25-88 25q-73 0-142-55q-69-56-113-150zM19275 0m989 485h-744v140h565q0 129-70 197q-71 68-180 68q-131 0-205-93q-75-93-75-292q0-185 91-275q90-90 229-90q97 0 191 23q93 22 184 77l20-165q-106-55-205-77q-99-23-215-23q-127 0-236 59q-110 59-177 175q-67 116-67 286q0 166 59 288q58 122 166 190q107 67 255 67q124 0 205-42q80-42 126-112q46-70 65-154q19-85 19-169q0-13 0-38q0-26-1-40zM20370 0m760 215v-160q-69-44-132-62q-63-18-116-18q-78 0-142 26q-64 25-102 90q-38 64-38 179q0 36 0 118q0 82 0 194q0 111 0 239q0 127 0 256q0 129 0 243h185q0-128 0-273q0-146 0-282q0-136 0-236q0-101 0-139q0-103 14-157q13-54 41-73q28-20 73-20q82 0 217 75zm-20 635h-710v145h710zM21205 0m185 790q0 56 40 96q40 39 95 39q56 0 96-39q39-40 39-96q0-55-39-95q-40-40-96-40q-55 0-95 40q-40 40-40 95zm0-680q0 56 40 96q40 39 95 39q56 0 96-39q39-40 39-96q0-55-39-95q-40-40-96-40q-55 0-95 40q-40 40-40 95z" transform="translate(290 462) scale(0.0137 -0.0137)" fill="#1f3a5f"/><path d="M0 0m1080 180v-180h-960v170q81 58 175 139q94 80 185 174q91 93 166 191q74 98 119 193q45 95 45 178q0 94-41 151q-42 57-107 83q-65 26-137 26q-92 0-190-52q-98-52-165-133l-45 170q41 56 111 100q70 44 155 70q85 25 169 25q120 0 223-51q102-52 165-146q62-94 62-223q0-101-42-204q-43-104-113-204q-70-100-152-191q-83-91-165-168q-82-77-148-133h255q148 0 262 3q113 2 173 12zM1750 0m205 709q0 56 40 95q39 39 94 39q56 0 95-39q39-39 39-95q0-55-39-94q-39-40-95-40q-55 0-94 40q-40 39-40 94zM2979 0m1080 180v-180h-960v170q81 58 175 139q94 80 185 174q91 93 166 191q74 98 119 193q45 95 45 178q0 94-41 151q-42 57-107 83q-65 26-137 26q-92 0-190-52q-98-52-165-133l-45 170q41 56 111 100q70 44 155 70q85 25 169 25q120 0 223-51q102-52 165-146q62-94 62-223q0-101-42-204q-43-104-113-204q-70-100-152-191q-83-91-165-168q-82-77-148-133h255q148 0 262 3q113 2 173 12zM4179 0m195 685v775h805v-190q-56 12-114 16q-58 4-121 4h-385v-370q23 3 67 7q43 3 98 3q144 0 261-58q116-58 185-160q69-103 69-237q0-156-70-268q-71-112-193-172q-122-60-279-60q-116 0-205 24q-89 23-183 81l30 210q101-81 183-108q82-27 187-27q150 0 245 82q95 82 95 233q0 101-56 163q-57 61-140 89q-84 28-164 28q-79 0-150-14q-72-15-165-51zM5929 0m120 480v150h960v-150zm0 350v150h960v-150zM7679 0m195 685v775h805v-190q-56 12-114 16q-58 4-121 4h-385v-370q23 3 67 7q43 3 98 3q144 0 261-58q116-58 185-160q69-103 69-237q0-156-70-268q-71-112-193-172q-122-60-279-60q-116 0-205 24q-89 23-183 81l30 210q101-81 183-108q82-27 187-27q150 0 245 82q95 82 95 233q0 101-56 163q-57 61-140 89q-84 28-164 28q-79 0-150-14q-72-15-165-51zM8879 0m910 715q0 221-35 353q-36 131-105 189q-69 58-170 58q-145 0-227-132q-83-132-83-438q0-220 37-351q36-132 105-190q69-59 168-59q144 0 227 133q83 132 83 437zm200 25q0-221-40-368q-40-148-111-235q-71-87-165-124q-95-38-204-38q-144 0-257 69q-113 68-178 231q-65 162-65 445q0 282 70 450q70 167 188 241q117 74 262 74q145 0 258-72q113-73 178-236q64-164 64-437zM10629 0m925 85q-76-57-154-83q-78-27-191-27q-134 0-244 63q-110 62-175 178q-66 115-66 274q0 151 64 276q63 125 180 200q117 74 276 74q100 0 173-23q72-24 127-62l-35-180q-67 50-135 75q-68 25-145 25q-133 0-224-99q-91-99-91-276q0-161 85-260q85-100 230-100q90 0 165 31q75 31 140 89zM11649 0m945 660v-660h-185v570q0 124-13 188q-13 63-44 85q-32 22-88 22q-73 0-144-57q-71-58-111-148v-660h-185v615q0 147-17 250q-17 103-33 155h180q11-31 19-75q8-44 13-80q92 106 172 141q80 34 166 34q98 0 160-51q61-51 86-117q94 101 177 135q83 33 162 33q152 0 211-97q59-98 59-283v-660h-185v550q0 129-13 197q-13 68-44 93q-32 25-88 25q-73 0-142-55q-69-56-113-150zM13334 0m761 797v-117h-672v110q71 48 155 117q83 69 158 148q75 79 123 158q47 79 47 146q0 92-62 131q-62 38-138 38q-64 0-132-33q-69-34-116-87l-32 110q43 55 130 91q87 36 175 36q84 0 156-33q72-34 116-95q43-61 43-145q0-82-45-166q-45-84-114-162q-70-79-144-145q-74-66-131-112h178q104 0 184 2q79 1 121 8z" transform="translate(290 510) scale(0.0156 -0.0156)" fill="#1f3a5f"/><path d="M525.1 499.2L539.5 512L561.9 481.6" fill="none" stroke="#1f3a5f" stroke-width="4" stroke-linecap="round" stroke-linejoin="round"/></svg>