<svg xmlns="http://www.w3.org/2000/svg" viewBox="0 0 960 540" width="960" height="540" role="img" aria-label="Medel, problem 8 · Lösning B. Lösning B, ett pris i kronor. Eleven väljer att en keps kostar 10 kr. Då kostar en tröja 3 · 10 / 2 = 15 kr, en kjol 8 · 15 / 3 = 40 kr och en hatt 5 · 40 / 2 = 100 kr. Tabellen har köpen: Ali 3 · 100 = 300, Bea 7 · 40 = 280, Cleo 18 · 15 = 270 och Dan 29 · 10 = 290."><title>Medel, problem 8 · Lösning B</title><rect width="960" height="540" fill="#fff"/><path d="M0 0m1095 1460h215q-27-61-58-140q-31-79-82-225l-385-1095h-225l-390 1095q-52 145-81 225q-29 79-54 140h215l422-1265zM1365 0m1055 0h-175q-14 32-24 94q-11 61-16 127q-5 65-5 109v80q-39-103-100-203q-61-101-143-166q-82-66-187-66q-126 0-213 112q-87 111-87 323q0 119 32 232q32 112 98 202q66 90 168 143q102 53 242 53q97 0 183-12q86-13 162-33v-465q0-189 18-317q18-129 47-213zm-250 735v127q-25 6-62 12q-38 6-113 6q-130 0-204-67q-75-68-105-175q-31-107-31-228q0-116 43-190q43-75 102-75q53 0 106 47q53 46 101 120q47 73 84 155q36 81 58 153q21 72 21 115zm-130 610q0 56 38 96q37 39 92 39q56 0 93-39q37-40 37-96q0-55-37-95q-37-40-93-40q-55 0-92 40q-38 40-38 95zm-420 0q0 56 38 96q37 39 92 39q56 0 93-39q37-40 37-96q0-55-37-95q-37-40-93-40q-55 0-92 40q-38 40-38 95zM2515 0m375 1600v-1125q0-64 3-155q2-91 7-178q4-87 10-142h-205v1130q0 293-20 470zM3080 0m405 1020v-995q0-186-46-294q-46-109-130-155q-85-46-199-46q-42 0-108 17q-67 17-112 48l35 165q33-25 93-42q60-18 102-18q80 0 130 64q50 63 50 211v555q0 146-2 279q-3 132-13 211zm-220 325q0 56 35 96q35 39 90 39q56 0 93-39q37-40 37-96q0-55-37-95q-37-40-93-40q-55 0-90 40q-35 40-35 95zM3675 0m185 790q0 56 40 96q40 39 95 39q56 0 96-39q39-40 39-96q0-55-39-95q-40-40-96-40q-55 0-95 40q-40 40-40 95zm0-680q0 56 40 96q40 39 95 39q56 0 96-39q39-40 39-96q0-55-39-95q-40-40-96-40q-55 0-95 40q-40 40-40 95zM4865 0m989 485h-744v140h565q0 129-70 197q-71 68-180 68q-131 0-205-93q-75-93-75-292q0-185 91-275q90-90 229-90q97 0 191 23q93 22 184 77l20-165q-106-55-205-77q-99-23-215-23q-127 0-236 59q-110 59-177 175q-67 116-67 286q0 166 59 288q58 122 166 190q107 67 255 67q124 0 205-42q80-42 126-112q46-70 65-154q19-85 19-169q0-13 0-38q0-26-1-40zM5960 0m1050 0h-185q0 67 0 147q0 79 0 158q0 78 0 143q0 65 0 102q0 125-22 194q-22 68-66 95q-44 26-112 26q-72 0-138-43q-66-43-115-108q-50-66-72-134v-580h-185q0 91 0 208q0 116 0 226q0 110 0 181q0 147-16 250q-17 103-34 155h180q8-21 16-58q7-37 14-75q7-38 10-62q95 114 192 165q97 50 203 50q160 0 245-104q85-105 85-311q0-45 0-120q0-75 0-164q0-89 0-178q0-89 0-163zM7695 0m330 0h-185q0 121 0 258q0 136 0 272q0 136 0 257q0 120 0 210q0 90 0 133q0 161-2 284q-2 122-13 186h200zm405 1020h250l-549-496l-156 26zm-430-470l105 110l605-660h-245zM8730 0m989 485h-744v140h565q0 129-70 197q-71 68-180 68q-131 0-205-93q-75-93-75-292q0-185 91-275q90-90 229-90q97 0 191 23q93 22 184 77l20-165q-106-55-205-77q-99-23-215-23q-127 0-236 59q-110 59-177 175q-67 116-67 286q0 166 59 288q58 122 166 190q107 67 255 67q124 0 205-42q80-42 126-112q46-70 65-154q19-85 19-169q0-13 0-38q0-26-1-40zM9825 0m105 1020h180q11-25 22-73q11-48 18-117q71 93 165 152q94 58 205 58q114 0 200-65q85-65 133-179q47-114 47-261q0-171-61-296q-62-126-165-195q-103-69-229-69q-80 0-144 30q-65 30-136 80v-235q0-120 6-198q6-78 19-142h-210q0 126 0 273q0 147 0 288q0 140 0 251q0 110 0 163q0 187-8 319q-8 131-42 216zm235-445v-315q69-48 114-74q45-26 83-36q37-10 83-10q71 0 133 44q61 44 99 126q38 82 38 195q0 167-61 266q-61 99-169 99q-86 0-175-75q-89-75-145-220zM10995 0m835 960l-35-175q-50 29-126 62q-76 33-169 33q-110 0-152-42q-43-43-43-88q0-35 17-59q16-25 67-46q51-21 156-45q91-20 166-56q74-36 119-96q45-60 45-153q0-90-51-162q-52-73-139-115q-87-43-195-43q-121 0-223 35q-103 34-162 80l50 180q68-61 165-98q96-37 175-37q88 0 144 42q56 41 56 93q0 38-22 70q-22 31-81 60q-60 28-172 55q-121 30-185 73q-64 43-87 97q-23 53-23 115q0 35 18 85q18 50 61 100q42 49 117 82q75 33 189 33q109 0 189-25q79-26 131-55zM12510 0m330 0h-185q0 121 0 258q0 136 0 272q0 136 0 257q0 120 0 210q0 90 0 133q0 161-2 284q-2 122-13 186h200zm405 1020h250l-549-496l-156 26zm-430-470l105 110l605-660h-245zM13545 0m95 505q0 172 67 292q66 119 177 181q110 62 241 62q138 0 243-62q104-62 163-181q59-120 59-292q0-172-66-290q-67-118-177-179q-110-61-242-61q-137 0-242 61q-105 61-164 179q-59 118-59 290zm185 0q0-175 81-272q80-98 209-98q121 0 206 98q84 97 84 272q0 176-80 276q-81 99-210 99q-121 0-205-99q-85-100-85-276zM14685 0m835 960l-35-175q-50 29-126 62q-76 33-169 33q-110 0-152-42q-43-43-43-88q0-35 17-59q16-25 67-46q51-21 156-45q91-20 166-56q74-36 119-96q45-60 45-153q0-90-51-162q-52-73-139-115q-87-43-195-43q-121 0-223 35q-103 34-162 80l50 180q68-61 165-98q96-37 175-37q88 0 144 42q56 41 56 93q0 38-22 70q-22 31-81 60q-60 28-172 55q-121 30-185 73q-64 43-87 97q-23 53-23 115q0 35 18 85q18 50 61 100q42 49 117 82q75 33 189 33q109 0 189-25q79-26 131-55zM15650 0m760 215v-160q-69-44-132-62q-63-18-116-18q-78 0-142 26q-64 25-102 90q-38 64-38 179q0 36 0 118q0 82 0 194q0 111 0 239q0 127 0 256q0 129 0 243h185q0-128 0-273q0-146 0-282q0-136 0-236q0-101 0-139q0-103 14-157q13-54 41-73q28-20 73-20q82 0 217 75zm-20 635h-710v145h710zM16485 0m1055 0h-175q-14 32-24 94q-11 61-16 127q-5 65-5 109v80q-39-103-100-203q-61-101-143-166q-82-66-187-66q-126 0-213 112q-87 111-87 323q0 119 32 232q32 112 98 202q66 90 168 143q102 53 242 53q97 0 183-12q86-13 162-33v-465q0-189 18-317q18-129 47-213zm-250 735v127q-25 6-62 12q-38 6-113 6q-130 0-204-67q-75-68-105-175q-31-107-31-228q0-116 43-190q43-75 102-75q53 0 106 47q53 46 101 120q47 73 84 155q36 81 58 153q21 72 21 115zM17635 0m340 0h-185v615q0 147-16 250q-17 103-34 155h180q8-21 16-58q7-37 14-75q7-38 10-62q73 104 165 160q92 55 160 55q84 0 135-47q50-48 73-124q22-76 22-164l-160-35q0 75-28 133q-28 57-87 57q-42 0-95-41q-54-42-101-106q-47-65-69-133zM19075 0m220 0v170h315v1090l-300-172l-25 180l345 212h170v-1310h315v-170zM20275 0m910 715q0 221-35 353q-36 131-105 189q-69 58-170 58q-145 0-227-132q-83-132-83-438q0-220 37-351q36-132 105-190q69-59 168-59q144 0 227 133q83 132 83 437zm200 25q0-221-40-368q-40-148-111-235q-71-87-165-124q-95-38-204-38q-144 0-257 69q-113 68-178 231q-65 162-65 445q0 282 70 450q70 167 188 241q117 74 262 74q145 0 258-72q113-73 178-236q64-164 64-437zM22025 0m330 0h-185q0 121 0 258q0 136 0 272q0 136 0 257q0 120 0 210q0 90 0 133q0 161-2 284q-2 122-13 186h200zm405 1020h250l-549-496l-156 26zm-430-470l105 110l605-660h-245zM23060 0m340 0h-185v615q0 147-16 250q-17 103-34 155h180q8-21 16-58q7-37 14-75q7-38 10-62q73 104 165 160q92 55 160 55q84 0 135-47q50-48 73-124q22-76 22-164l-160-35q0 75-28 133q-28 57-87 57q-42 0-95-41q-54-42-101-106q-47-65-69-133zM23950 0m185 110q0 56 40 96q40 39 95 39q56 0 96-39q39-40 39-96q0-55-39-95q-40-40-96-40q-55 0-95 40q-40 40-40 95z" transform="translate(30 60) scale(0.0137 -0.0137)" fill="#1f3a5f"/><path d="M0 0m989 485h-744v140h565q0 129-70 197q-71 68-180 68q-131 0-205-93q-75-93-75-292q0-185 91-275q90-90 229-90q97 0 191 23q93 22 184 77l20-165q-106-55-205-77q-99-23-215-23q-127 0-236 59q-110 59-177 175q-67 116-67 286q0 166 59 288q58 122 166 190q107 67 255 67q124 0 205-42q80-42 126-112q46-70 65-154q19-85 19-169q0-13 0-38q0-26-1-40zM1095 0m1050 0h-185q0 67 0 147q0 79 0 158q0 78 0 143q0 65 0 102q0 125-22 194q-22 68-66 95q-44 26-112 26q-72 0-138-43q-66-43-115-108q-50-66-72-134v-580h-185q0 91 0 208q0 116 0 226q0 110 0 181q0 147-16 250q-17 103-34 155h180q8-21 16-58q7-37 14-75q7-38 10-62q95 114 192 165q97 50 203 50q160 0 245-104q85-105 85-311q0-45 0-120q0-75 0-164q0-89 0-178q0-89 0-163zM2830 0m760 215v-160q-69-44-132-62q-63-18-116-18q-78 0-142 26q-64 25-102 90q-38 64-38 179q0 36 0 118q0 82 0 194q0 111 0 239q0 127 0 256q0 129 0 243h185q0-128 0-273q0-146 0-282q0-136 0-236q0-101 0-139q0-103 14-157q13-54 41-73q28-20 73-20q82 0 217 75zm-20 635h-710v145h710zM3665 0m340 0h-185v615q0 147-16 250q-17 103-34 155h180q8-21 16-58q7-37 14-75q7-38 10-62q73 104 165 160q92 55 160 55q84 0 135-47q50-48 73-124q22-76 22-164l-160-35q0 75-28 133q-28 57-87 57q-42 0-95-41q-54-42-101-106q-47-65-69-133zM4555 0m95 505q0 172 67 292q66 119 177 181q110 62 241 62q138 0 243-62q104-62 163-181q59-120 59-292q0-172-66-290q-67-118-177-179q-110-61-242-61q-137 0-242 61q-105 61-164 179q-59 118-59 290zm185 0q0-175 81-272q80-98 209-98q121 0 206 98q84 97 84 272q0 176-80 276q-81 99-210 99q-121 0-205-99q-85-100-85-276zm370 840q0 56 38 96q37 39 92 39q56 0 93-39q37-40 37-96q0-55-37-95q-37-40-93-40q-55 0-92 40q-38 40-38 95zm-420 0q0 56 38 96q37 39 92 39q56 0 93-39q37-40 37-96q0-55-37-95q-37-40-93-40q-55 0-92 40q-38 40-38 95zM5695 0m405 1020v-995q0-186-46-294q-46-109-130-155q-85-46-199-46q-42 0-108 17q-67 17-112 48l35 165q33-25 93-42q60-18 102-18q80 0 130 64q50 63 50 211v555q0 146-2 279q-3 132-13 211zm-220 325q0 56 35 96q35 39 90 39q56 0 93-39q37-40 37-96q0-55-37-95q-37-40-93-40q-55 0-90 40q-35 40-35 95zM6290 0m1055 0h-175q-14 32-24 94q-11 61-16 127q-5 65-5 109v80q-39-103-100-203q-61-101-143-166q-82-66-187-66q-126 0-213 112q-87 111-87 323q0 119 32 232q32 112 98 202q66 90 168 143q102 53 242 53q97 0 183-12q86-13 162-33v-465q0-189 18-317q18-129 47-213zm-250 735v127q-25 6-62 12q-38 6-113 6q-130 0-204-67q-75-68-105-175q-31-107-31-228q0-116 43-190q43-75 102-75q53 0 106 47q53 46 101 120q47 73 84 155q36 81 58 153q21 72 21 115zM7440 0m185 790q0 56 40 96q40 39 95 39q56 0 96-39q39-40 39-96q0-55-39-95q-40-40-96-40q-55 0-95 40q-40 40-40 95zm0-680q0 56 40 96q40 39 95 39q56 0 96-39q39-40 39-96q0-55-39-95q-40-40-96-40q-55 0-95 40q-40 40-40 95zM8630 0m410 870h70q100 0 184 36q84 35 135 91q51 56 51 118q0 68-40 111q-40 43-99 64q-60 20-121 20q-115 0-202-34q-88-34-173-121l-35 170q60 68 168 114q107 46 232 46q124 0 229-41q104-42 168-119q63-78 63-185q0-91-50-162q-51-72-125-117q-74-46-145-61q53-9 117-34q64-26 122-72q57-47 94-118q37-71 37-171q0-88-44-166q-44-78-120-137q-76-60-174-93q-99-34-207-34q-133 0-244 46q-112 46-191 119l25 215q82-92 189-148q106-57 241-57q77 0 153 31q76 30 127 91q50 61 50 153q0 82-54 144q-55 61-149 96q-94 35-212 35h-70zM10380 0m205 709q0 56 40 95q39 39 94 39q56 0 95-39q39-39 39-95q0-55-39-94q-39-40-95-40q-55 0-94 40q-40 39-40 94zM11609 0m220 0v170h315v1090l-300-172l-25 180l345 212h170v-1310h315v-170zM12809 0m910 715q0 221-35 353q-36 131-105 189q-69 58-170 58q-145 0-227-132q-83-132-83-438q0-220 37-351q36-132 105-190q69-59 168-59q144 0 227 133q83 132 83 437zm200 25q0-221-40-368q-40-148-111-235q-71-87-165-124q-95-38-204-38q-144 0-257 69q-113 68-178 231q-65 162-65 445q0 282 70 450q70 167 188 241q117 74 262 74q145 0 258-72q113-73 178-236q64-164 64-437zM14559 0m840 1600h150l-830-1845h-150zM16109 0m1080 180v-180h-960v170q81 58 175 139q94 80 185 174q91 93 166 191q74 98 119 193q45 95 45 178q0 94-41 151q-42 57-107 83q-65 26-137 26q-92 0-190-52q-98-52-165-133l-45 170q41 56 111 100q70 44 155 70q85 25 169 25q120 0 223-51q102-52 165-146q62-94 62-223q0-101-42-204q-43-104-113-204q-70-100-152-191q-83-91-165-168q-82-77-148-133h255q148 0 262 3q113 2 173 12zM17859 0m120 480v150h960v-150zm0 350v150h960v-150zM19609 0m220 0v170h315v1090l-300-172l-25 180l345 212h170v-1310h315v-170zM20809 0m195 685v775h805v-190q-56 12-114 16q-58 4-121 4h-385v-370q23 3 67 7q43 3 98 3q144 0 261-58q116-58 185-160q69-103 69-237q0-156-70-268q-71-112-193-172q-122-60-279-60q-116 0-205 24q-89 23-183 81l30 210q101-81 183-108q82-27 187-27q150 0 245 82q95 82 95 233q0 101-56 163q-57 61-140 89q-84 28-164 28q-79 0-150-14q-72-15-165-51zM22559 0m330 0h-185q0 121 0 258q0 136 0 272q0 136 0 257q0 120 0 210q0 90 0 133q0 161-2 284q-2 122-13 186h200zm405 1020h250l-549-496l-156 26zm-430-470l105 110l605-660h-245zM23594 0m340 0h-185v615q0 147-16 250q-17 103-34 155h180q8-21 16-58q7-37 14-75q7-38 10-62q73 104 165 160q92 55 160 55q84 0 135-47q50-48 73-124q22-76 22-164l-160-35q0 75-28 133q-28 57-87 57q-42 0-95-41q-54-42-101-106q-47-65-69-133z" transform="translate(30 125) scale(0.0137 -0.0137)" fill="#1f3a5f"/><path d="M0 0m989 485h-744v140h565q0 129-70 197q-71 68-180 68q-131 0-205-93q-75-93-75-292q0-185 91-275q90-90 229-90q97 0 191 23q93 22 184 77l20-165q-106-55-205-77q-99-23-215-23q-127 0-236 59q-110 59-177 175q-67 116-67 286q0 166 59 288q58 122 166 190q107 67 255 67q124 0 205-42q80-42 126-112q46-70 65-154q19-85 19-169q0-13 0-38q0-26-1-40zM1095 0m1050 0h-185q0 67 0 147q0 79 0 158q0 78 0 143q0 65 0 102q0 125-22 194q-22 68-66 95q-44 26-112 26q-72 0-138-43q-66-43-115-108q-50-66-72-134v-580h-185q0 91 0 208q0 116 0 226q0 110 0 181q0 147-16 250q-17 103-34 155h180q8-21 16-58q7-37 14-75q7-38 10-62q95 114 192 165q97 50 203 50q160 0 245-104q85-105 85-311q0-45 0-120q0-75 0-164q0-89 0-178q0-89 0-163zM2830 0m330 0h-185q0 121 0 258q0 136 0 272q0 136 0 257q0 120 0 210q0 90 0 133q0 161-2 284q-2 122-13 186h200zm405 1020h250l-549-496l-156 26zm-430-470l105 110l605-660h-245zM3865 0m405 1020v-995q0-186-46-294q-46-109-130-155q-85-46-199-46q-42 0-108 17q-67 17-112 48l35 165q33-25 93-42q60-18 102-18q80 0 130 64q50 63 50 211v555q0 146-2 279q-3 132-13 211zm-220 325q0 56 35 96q35 39 90 39q56 0 93-39q37-40 37-96q0-55-37-95q-37-40-93-40q-55 0-90 40q-35 40-35 95zM4460 0m95 505q0 172 67 292q66 119 177 181q110 62 241 62q138 0 243-62q104-62 163-181q59-120 59-292q0-172-66-290q-67-118-177-179q-110-61-242-61q-137 0-242 61q-105 61-164 179q-59 118-59 290zm185 0q0-175 81-272q80-98 209-98q121 0 206 98q84 97 84 272q0 176-80 276q-81 99-210 99q-121 0-205-99q-85-100-85-276zM5600 0m375 1600v-1125q0-64 3-155q2-91 7-178q4-87 10-142h-205v1130q0 293-20 470zM6165 0m185 790q0 56 40 96q40 39 95 39q56 0 96-39q39-40 39-96q0-55-39-95q-40-40-96-40q-55 0-95 40q-40 40-40 95zm0-680q0 56 40 96q40 39 95 39q56 0 96-39q39-40 39-96q0-55-39-95q-40-40-96-40q-55 0-95 40q-40 40-40 95zM7355 0m600-25q-128 0-245 51q-117 51-191 148q-74 96-74 231q0 103 38 178q38 74 98 126q60 51 124 86q-39 22-85 60q-47 37-81 98q-34 61-34 152q0 123 68 208q67 84 172 128q105 44 220 44q115 0 216-44q100-44 162-128q62-85 62-208q0-91-32-150q-33-60-78-97q-46-38-85-63q55-28 114-80q59-53 100-130q41-77 41-180q0-135-74-231q-74-97-190-148q-117-51-246-51zm260 1130q0 110-76 165q-77 55-184 55q-107 0-183-55q-77-55-77-165q0-117 77-178q76-62 183-62q107 0 184 62q76 61 76 178zm50-680q0 125-88 205q-88 80-222 80q-135 0-222-80q-88-80-88-205q0-131 88-205q87-75 222-75q134 0 222 75q88 74 88 205zM9105 0m205 709q0 56 40 95q39 39 94 39q56 0 95-39q39-39 39-95q0-55-39-94q-39-40-95-40q-55 0-94 40q-40 39-40 94zM10334 0m220 0v170h315v1090l-300-172l-25 180l345 212h170v-1310h315v-170zM11534 0m195 685v775h805v-190q-56 12-114 16q-58 4-121 4h-385v-370q23 3 67 7q43 3 98 3q144 0 261-58q116-58 185-160q69-103 69-237q0-156-70-268q-71-112-193-172q-122-60-279-60q-116 0-205 24q-89 23-183 81l30 210q101-81 183-108q82-27 187-27q150 0 245 82q95 82 95 233q0 101-56 163q-57 61-140 89q-84 28-164 28q-79 0-150-14q-72-15-165-51zM13284 0m840 1600h150l-830-1845h-150zM14834 0m410 870h70q100 0 184 36q84 35 135 91q51 56 51 118q0 68-40 111q-40 43-99 64q-60 20-121 20q-115 0-202-34q-88-34-173-121l-35 170q60 68 168 114q107 46 232 46q124 0 229-41q104-42 168-119q63-78 63-185q0-91-50-162q-51-72-125-117q-74-46-145-61q53-9 117-34q64-26 122-72q57-47 94-118q37-71 37-171q0-88-44-166q-44-78-120-137q-76-60-174-93q-99-34-207-34q-133 0-244 46q-112 46-191 119l25 215q82-92 189-148q106-57 241-57q77 0 153 31q76 30 127 91q50 61 50 153q0 82-54 144q-55 61-149 96q-94 35-212 35h-70zM16584 0m120 480v150h960v-150zm0 350v150h960v-150zM18334 0m1125 395h-190v-395h-190v395h-655v155l655 930h190v-930h190zm-380 842l-482-687h482zM19534 0m910 715q0 221-35 353q-36 131-105 189q-69 58-170 58q-145 0-227-132q-83-132-83-438q0-220 37-351q36-132 105-190q69-59 168-59q144 0 227 133q83 132 83 437zm200 25q0-221-40-368q-40-148-111-235q-71-87-165-124q-95-38-204-38q-144 0-257 69q-113 68-178 231q-65 162-65 445q0 282 70 450q70 167 188 241q117 74 262 74q145 0 258-72q113-73 178-236q64-164 64-437zM21284 0m330 0h-185q0 121 0 258q0 136 0 272q0 136 0 257q0 120 0 210q0 90 0 133q0 161-2 284q-2 122-13 186h200zm405 1020h250l-549-496l-156 26zm-430-470l105 110l605-660h-245zM22319 0m340 0h-185v615q0 147-16 250q-17 103-34 155h180q8-21 16-58q7-37 14-75q7-38 10-62q73 104 165 160q92 55 160 55q84 0 135-47q50-48 73-124q22-76 22-164l-160-35q0 75-28 133q-28 57-87 57q-42 0-95-41q-54-42-101-106q-47-65-69-133z" transform="translate(30 190) scale(0.0137 -0.0137)" fill="#1f3a5f"/><path d="M0 0m989 485h-744v140h565q0 129-70 197q-71 68-180 68q-131 0-205-93q-75-93-75-292q0-185 91-275q90-90 229-90q97 0 191 23q93 22 184 77l20-165q-106-55-205-77q-99-23-215-23q-127 0-236 59q-110 59-177 175q-67 116-67 286q0 166 59 288q58 122 166 190q107 67 255 67q124 0 205-42q80-42 126-112q46-70 65-154q19-85 19-169q0-13 0-38q0-26-1-40zM1095 0m1050 0h-185q0 67 0 147q0 79 0 158q0 78 0 143q0 65 0 102q0 125-22 194q-22 68-66 95q-44 26-112 26q-72 0-138-43q-66-43-115-108q-50-66-72-134v-580h-185q0 91 0 208q0 116 0 226q0 110 0 181q0 147-16 250q-17 103-34 155h180q8-21 16-58q7-37 14-75q7-38 10-62q95 114 192 165q97 50 203 50q160 0 245-104q85-105 85-311q0-45 0-120q0-75 0-164q0-89 0-178q0-89 0-163zM2830 0m330 580v-580h-185q0 121 0 258q0 136 0 272q0 136 0 257q0 121 0 211q0 89 0 132q0 161-2 284q-2 122-13 186h200q0-117 0-245q0-129 0-244q0-115 0-191q0-77 0-90q74 104 175 157q100 53 205 53q160 0 245-104q85-105 85-311q0-45 0-120q0-75 0-164q0-89 0-178q0-89 0-163h-185q0 67 0 147q0 79 0 158q0 78 0 143q0 65 0 102q0 125-22 194q-22 68-66 95q-45 26-112 26q-72 0-138-43q-66-43-115-108q-50-66-72-134zM4005 0m1055 0h-175q-14 32-24 94q-11 61-16 127q-5 65-5 109v80q-39-103-100-203q-61-101-143-166q-82-66-187-66q-126 0-213 112q-87 111-87 323q0 119 32 232q32 112 98 202q66 90 168 143q102 53 242 53q97 0 183-12q86-13 162-33v-465q0-189 18-317q18-129 47-213zm-250 735v127q-25 6-62 12q-38 6-113 6q-130 0-204-67q-75-68-105-175q-31-107-31-228q0-116 43-190q43-75 102-75q53 0 106 47q53 46 101 120q47 73 84 155q36 81 58 153q21 72 21 115zM5155 0m760 215v-160q-69-44-132-62q-63-18-116-18q-78 0-142 26q-64 25-102 90q-38 64-38 179q0 36 0 118q0 82 0 194q0 111 0 239q0 127 0 256q0 129 0 243h185q0-128 0-273q0-146 0-282q0-136 0-236q0-101 0-139q0-103 14-157q13-54 41-73q28-20 73-20q82 0 217 75zm-20 635h-710v145h710zM5990 0m760 215v-160q-69-44-132-62q-63-18-116-18q-78 0-142 26q-64 25-102 90q-38 64-38 179q0 36 0 118q0 82 0 194q0 111 0 239q0 127 0 256q0 129 0 243h185q0-128 0-273q0-146 0-282q0-136 0-236q0-101 0-139q0-103 14-157q13-54 41-73q28-20 73-20q82 0 217 75zm-20 635h-710v145h710zM6825 0m185 790q0 56 40 96q40 39 95 39q56 0 96-39q39-40 39-96q0-55-39-95q-40-40-96-40q-55 0-95 40q-40 40-40 95zm0-680q0 56 40 96q40 39 95 39q56 0 96-39q39-40 39-96q0-55-39-95q-40-40-96-40q-55 0-95 40q-40 40-40 95zM8015 0m195 685v775h805v-190q-56 12-114 16q-58 4-121 4h-385v-370q23 3 67 7q43 3 98 3q144 0 261-58q116-58 185-160q69-103 69-237q0-156-70-268q-71-112-193-172q-122-60-279-60q-116 0-205 24q-89 23-183 81l30 210q101-81 183-108q82-27 187-27q150 0 245 82q95 82 95 233q0 101-56 163q-57 61-140 89q-84 28-164 28q-79 0-150-14q-72-15-165-51zM9765 0m205 709q0 56 40 95q39 39 94 39q56 0 95-39q39-39 39-95q0-55-39-94q-39-40-95-40q-55 0-94 40q-40 39-40 94zM10994 0m1125 395h-190v-395h-190v395h-655v155l655 930h190v-930h190zm-380 842l-482-687h482zM12194 0m910 715q0 221-35 353q-36 131-105 189q-69 58-170 58q-145 0-227-132q-83-132-83-438q0-220 37-351q36-132 105-190q69-59 168-59q144 0 227 133q83 132 83 437zm200 25q0-221-40-368q-40-148-111-235q-71-87-165-124q-95-38-204-38q-144 0-257 69q-113 68-178 231q-65 162-65 445q0 282 70 450q70 167 188 241q117 74 262 74q145 0 258-72q113-73 178-236q64-164 64-437zM13944 0m840 1600h150l-830-1845h-150zM15494 0m1080 180v-180h-960v170q81 58 175 139q94 80 185 174q91 93 166 191q74 98 119 193q45 95 45 178q0 94-41 151q-42 57-107 83q-65 26-137 26q-92 0-190-52q-98-52-165-133l-45 170q41 56 111 100q70 44 155 70q85 25 169 25q120 0 223-51q102-52 165-146q62-94 62-223q0-101-42-204q-43-104-113-204q-70-100-152-191q-83-91-165-168q-82-77-148-133h255q148 0 262 3q113 2 173 12zM17244 0m120 480v150h960v-150zm0 350v150h960v-150zM18994 0m220 0v170h315v1090l-300-172l-25 180l345 212h170v-1310h315v-170zM20194 0m910 715q0 221-35 353q-36 131-105 189q-69 58-170 58q-145 0-227-132q-83-132-83-438q0-220 37-351q36-132 105-190q69-59 168-59q144 0 227 133q83 132 83 437zm200 25q0-221-40-368q-40-148-111-235q-71-87-165-124q-95-38-204-38q-144 0-257 69q-113 68-178 231q-65 162-65 445q0 282 70 450q70 167 188 241q117 74 262 74q145 0 258-72q113-73 178-236q64-164 64-437zM21394 0m910 715q0 221-35 353q-36 131-105 189q-69 58-170 58q-145 0-227-132q-83-132-83-438q0-220 37-351q36-132 105-190q69-59 168-59q144 0 227 133q83 132 83 437zm200 25q0-221-40-368q-40-148-111-235q-71-87-165-124q-95-38-204-38q-144 0-257 69q-113 68-178 231q-65 162-65 445q0 282 70 450q70 167 188 241q117 74 262 74q145 0 258-72q113-73 178-236q64-164 64-437zM23144 0m330 0h-185q0 121 0 258q0 136 0 272q0 136 0 257q0 120 0 210q0 90 0 133q0 161-2 284q-2 122-13 186h200zm405 1020h250l-549-496l-156 26zm-430-470l105 110l605-660h-245zM24179 0m340 0h-185v615q0 147-16 250q-17 103-34 155h180q8-21 16-58q7-37 14-75q7-38 10-62q73 104 165 160q92 55 160 55q84 0 135-47q50-48 73-124q22-76 22-164l-160-35q0 75-28 133q-28 57-87 57q-42 0-95-41q-54-42-101-106q-47-65-69-133z" transform="translate(30 255) scale(0.0137 -0.0137)" fill="#1f3a5f"/><path d="M0 0m840 1020h210q-28-57-58-124q-30-68-55-129q-26-62-42-102q-14-35-44-110q-30-75-68-171q-38-97-78-197q-40-101-75-187h-190q-33 82-71 180q-39 97-77 193q-38 95-69 173q-31 77-48 119q-16 41-42 102q-26 61-55 129q-30 67-58 124h210l305-820zM1070 0m989 485h-744v140h565q0 129-70 197q-71 68-180 68q-131 0-205-93q-75-93-75-292q0-185 91-275q90-90 229-90q97 0 191 23q93 22 184 77l20-165q-106-55-205-77q-99-23-215-23q-127 0-236 59q-110 59-177 175q-67 116-67 286q0 166 59 288q58 122 166 190q107 67 255 67q124 0 205-42q80-42 126-112q46-70 65-154q19-85 19-169q0-13 0-38q0-26-1-40zM2165 0m945 660v-660h-185v570q0 124-13 188q-13 63-44 85q-32 22-88 22q-73 0-144-57q-71-58-111-148v-660h-185v615q0 147-17 250q-17 103-33 155h180q11-31 19-75q8-44 13-80q92 106 172 141q80 34 166 34q98 0 160-51q61-51 86-117q94 101 177 135q83 33 162 33q152 0 211-97q59-98 59-283v-660h-185v550q0 129-13 197q-13 68-44 93q-32 25-88 25q-73 0-142-55q-69-56-113-150z" transform="translate(488.7 72.2) scale(0.0137 -0.0137)" fill="#1f3a5f"/><path d="M0 0m330 0h-185q0 121 0 258q0 136 0 272q0 136 0 257q0 120 0 210q0 90 0 133q0 161-2 284q-2 122-13 186h200zm405 1020h250l-549-496l-156 26zm-430-470l105 110l605-660h-245zM1035 0m95 505q0 172 67 292q66 119 177 181q110 62 241 62q138 0 243-62q104-62 163-181q59-120 59-292q0-172-66-290q-67-118-177-179q-110-61-242-61q-137 0-242 61q-105 61-164 179q-59 118-59 290zm185 0q0-175 81-272q80-98 209-98q121 0 206 98q84 97 84 272q0 176-80 276q-81 99-210 99q-121 0-205-99q-85-100-85-276zm370 840q0 56 38 96q37 39 92 39q56 0 93-39q37-40 37-96q0-55-37-95q-37-40-93-40q-55 0-92 40q-38 40-38 95zm-420 0q0 56 38 96q37 39 92 39q56 0 93-39q37-40 37-96q0-55-37-95q-37-40-93-40q-55 0-92 40q-38 40-38 95zM2175 0m105 1020h180q11-25 22-73q11-48 18-117q71 93 165 152q94 58 205 58q114 0 200-65q85-65 133-179q47-114 47-261q0-171-61-296q-62-126-165-195q-103-69-229-69q-80 0-144 30q-65 30-136 80v-235q0-120 6-198q6-78 19-142h-210q0 126 0 273q0 147 0 288q0 140 0 251q0 110 0 163q0 187-8 319q-8 131-42 216zm235-445v-315q69-48 114-74q45-26 83-36q37-10 83-10q71 0 133 44q61 44 99 126q38 82 38 195q0 167-61 266q-61 99-169 99q-86 0-175-75q-89-75-145-220z" transform="translate(617.1 72.2) scale(0.0137 -0.0137)" fill="#1f3a5f"/><path d="M0 0m330 0h-185q0 121 0 258q0 136 0 272q0 136 0 257q0 120 0 210q0 90 0 133q0 161-2 284q-2 122-13 186h200zm405 1020h250l-549-496l-156 26zm-430-470l105 110l605-660h-245zM1035 0m340 0h-185v615q0 147-16 250q-17 103-34 155h180q8-21 16-58q7-37 14-75q7-38 10-62q73 104 165 160q92 55 160 55q84 0 135-47q50-48 73-124q22-76 22-164l-160-35q0 75-28 133q-28 57-87 57q-42 0-95-41q-54-42-101-106q-47-65-69-133zM1925 0m95 505q0 172 67 292q66 119 177 181q110 62 241 62q138 0 243-62q104-62 163-181q59-120 59-292q0-172-66-290q-67-118-177-179q-110-61-242-61q-137 0-242 61q-105 61-164 179q-59 118-59 290zm185 0q0-175 81-272q80-98 209-98q121 0 206 98q84 97 84 272q0 176-80 276q-81 99-210 99q-121 0-205-99q-85-100-85-276zM3065 0m1050 0h-185q0 67 0 147q0 79 0 158q0 78 0 143q0 65 0 102q0 125-22 194q-22 68-66 95q-44 26-112 26q-72 0-138-43q-66-43-115-108q-50-66-72-134v-580h-185q0 91 0 208q0 116 0 226q0 110 0 181q0 147-16 250q-17 103-34 155h180q8-21 16-58q7-37 14-75q7-38 10-62q95 114 192 165q97 50 203 50q160 0 245-104q85-105 85-311q0-45 0-120q0-75 0-164q0-89 0-178q0-89 0-163zM4250 0m95 505q0 172 67 292q66 119 177 181q110 62 241 62q138 0 243-62q104-62 163-181q59-120 59-292q0-172-66-290q-67-118-177-179q-110-61-242-61q-137 0-242 61q-105 61-164 179q-59 118-59 290zm185 0q0-175 81-272q80-98 209-98q121 0 206 98q84 97 84 272q0 176-80 276q-81 99-210 99q-121 0-205-99q-85-100-85-276zM5390 0m340 0h-185v615q0 147-16 250q-17 103-34 155h180q8-21 16-58q7-37 14-75q7-38 10-62q73 104 165 160q92 55 160 55q84 0 135-47q50-48 73-124q22-76 22-164l-160-35q0 75-28 133q-28 57-87 57q-42 0-95-41q-54-42-101-106q-47-65-69-133z" transform="translate(782.1 72.2) scale(0.0137 -0.0137)" fill="#1f3a5f"/><path d="M0 0m245 0h-205q27 61 58 138q31 77 82 217l400 1105h215l400-1105q50-139 82-217q32-78 58-138h-205l-136 385h-615zm695 540l-255 725l-252-725zM1395 0m375 1600v-1125q0-64 3-155q2-91 7-178q4-87 10-142h-205v1130q0 293-20 470zM1960 0m175 1020h200q0-136 0-272q0-136 0-273q0-64 3-155q2-92 7-179q4-87 10-141h-205q0 72 0 169q0 97 0 194q0 96 0 167q0 146-2 279q-3 132-13 211zm-20 325q0 56 35 96q35 39 90 39q56 0 93-39q37-40 37-96q0-55-37-95q-37-40-93-40q-55 0-90 40q-35 40-35 95z" transform="translate(497.7 134.2) scale(0.0137 -0.0137)" fill="#1f3a5f"/><path d="M0 0m410 870h70q100 0 184 36q84 35 135 91q51 56 51 118q0 68-40 111q-40 43-99 64q-60 20-121 20q-115 0-202-34q-88-34-173-121l-35 170q60 68 168 114q107 46 232 46q124 0 229-41q104-42 168-119q63-78 63-185q0-91-50-162q-51-72-125-117q-74-46-145-61q53-9 117-34q64-26 122-72q57-47 94-118q37-71 37-171q0-88-44-166q-44-78-120-137q-76-60-174-93q-99-34-207-34q-133 0-244 46q-112 46-191 119l25 215q82-92 189-148q106-57 241-57q77 0 153 31q76 30 127 91q50 61 50 153q0 82-54 144q-55 61-149 96q-94 35-212 35h-70zM1750 0m330 580v-580h-185q0 121 0 258q0 136 0 272q0 136 0 257q0 121 0 211q0 89 0 132q0 161-2 284q-2 122-13 186h200q0-117 0-245q0-129 0-244q0-115 0-191q0-77 0-90q74 104 175 157q100 53 205 53q160 0 245-104q85-105 85-311q0-45 0-120q0-75 0-164q0-89 0-178q0-89 0-163h-185q0 67 0 147q0 79 0 158q0 78 0 143q0 65 0 102q0 125-22 194q-22 68-66 95q-45 26-112 26q-72 0-138-43q-66-43-115-108q-50-66-72-134zM2925 0m1055 0h-175q-14 32-24 94q-11 61-16 127q-5 65-5 109v80q-39-103-100-203q-61-101-143-166q-82-66-187-66q-126 0-213 112q-87 111-87 323q0 119 32 232q32 112 98 202q66 90 168 143q102 53 242 53q97 0 183-12q86-13 162-33v-465q0-189 18-317q18-129 47-213zm-250 735v127q-25 6-62 12q-38 6-113 6q-130 0-204-67q-75-68-105-175q-31-107-31-228q0-116 43-190q43-75 102-75q53 0 106 47q53 46 101 120q47 73 84 155q36 81 58 153q21 72 21 115zM4075 0m760 215v-160q-69-44-132-62q-63-18-116-18q-78 0-142 26q-64 25-102 90q-38 64-38 179q0 36 0 118q0 82 0 194q0 111 0 239q0 127 0 256q0 129 0 243h185q0-128 0-273q0-146 0-282q0-136 0-236q0-101 0-139q0-103 14-157q13-54 41-73q28-20 73-20q82 0 217 75zm-20 635h-710v145h710zM4910 0m760 215v-160q-69-44-132-62q-63-18-116-18q-78 0-142 26q-64 25-102 90q-38 64-38 179q0 36 0 118q0 82 0 194q0 111 0 239q0 127 0 256q0 129 0 243h185q0-128 0-273q0-146 0-282q0-136 0-236q0-101 0-139q0-103 14-157q13-54 41-73q28-20 73-20q82 0 217 75zm-20 635h-710v145h710zM5745 0m1055 0h-175q-14 32-24 94q-11 61-16 127q-5 65-5 109v80q-39-103-100-203q-61-101-143-166q-82-66-187-66q-126 0-213 112q-87 111-87 323q0 119 32 232q32 112 98 202q66 90 168 143q102 53 242 53q97 0 183-12q86-13 162-33v-465q0-189 18-317q18-129 47-213zm-250 735v127q-25 6-62 12q-38 6-113 6q-130 0-204-67q-75-68-105-175q-31-107-31-228q0-116 43-190q43-75 102-75q53 0 106 47q53 46 101 120q47 73 84 155q36 81 58 153q21 72 21 115zM6895 0m340 0h-185v615q0 147-16 250q-17 103-34 155h180q8-21 16-58q7-37 14-75q7-38 10-62q73 104 165 160q92 55 160 55q84 0 135-47q50-48 73-124q22-76 22-164l-160-35q0 75-28 133q-28 57-87 57q-42 0-95-41q-54-42-101-106q-47-65-69-133z" transform="translate(586.8 134.2) scale(0.0137 -0.0137)" fill="#1f3a5f"/><path d="M0 0m410 870h70q100 0 184 36q84 35 135 91q51 56 51 118q0 68-40 111q-40 43-99 64q-60 20-121 20q-115 0-202-34q-88-34-173-121l-35 170q60 68 168 114q107 46 232 46q124 0 229-41q104-42 168-119q63-78 63-185q0-91-50-162q-51-72-125-117q-74-46-145-61q53-9 117-34q64-26 122-72q57-47 94-118q37-71 37-171q0-88-44-166q-44-78-120-137q-76-60-174-93q-99-34-207-34q-133 0-244 46q-112 46-191 119l25 215q82-92 189-148q106-57 241-57q77 0 153 31q76 30 127 91q50 61 50 153q0 82-54 144q-55 61-149 96q-94 35-212 35h-70zM1750 0m205 709q0 56 40 95q39 39 94 39q56 0 95-39q39-39 39-95q0-55-39-94q-39-40-95-40q-55 0-94 40q-40 39-40 94zM2979 0m220 0v170h315v1090l-300-172l-25 180l345 212h170v-1310h315v-170zM4179 0m910 715q0 221-35 353q-36 131-105 189q-69 58-170 58q-145 0-227-132q-83-132-83-438q0-220 37-351q36-132 105-190q69-59 168-59q144 0 227 133q83 132 83 437zm200 25q0-221-40-368q-40-148-111-235q-71-87-165-124q-95-38-204-38q-144 0-257 69q-113 68-178 231q-65 162-65 445q0 282 70 450q70 167 188 241q117 74 262 74q145 0 258-72q113-73 178-236q64-164 64-437zM5379 0m910 715q0 221-35 353q-36 131-105 189q-69 58-170 58q-145 0-227-132q-83-132-83-438q0-220 37-351q36-132 105-190q69-59 168-59q144 0 227 133q83 132 83 437zm200 25q0-221-40-368q-40-148-111-235q-71-87-165-124q-95-38-204-38q-144 0-257 69q-113 68-178 231q-65 162-65 445q0 282 70 450q70 167 188 241q117 74 262 74q145 0 258-72q113-73 178-236q64-164 64-437zM7129 0m120 480v150h960v-150zm0 350v150h960v-150zM8879 0m410 870h70q100 0 184 36q84 35 135 91q51 56 51 118q0 68-40 111q-40 43-99 64q-60 20-121 20q-115 0-202-34q-88-34-173-121l-35 170q60 68 168 114q107 46 232 46q124 0 229-41q104-42 168-119q63-78 63-185q0-91-50-162q-51-72-125-117q-74-46-145-61q53-9 117-34q64-26 122-72q57-47 94-118q37-71 37-171q0-88-44-166q-44-78-120-137q-76-60-174-93q-99-34-207-34q-133 0-244 46q-112 46-191 119l25 215q82-92 189-148q106-57 241-57q77 0 153 31q76 30 127 91q50 61 50 153q0 82-54 144q-55 61-149 96q-94 35-212 35h-70zM10079 0m910 715q0 221-35 353q-36 131-105 189q-69 58-170 58q-145 0-227-132q-83-132-83-438q0-220 37-351q36-132 105-190q69-59 168-59q144 0 227 133q83 132 83 437zm200 25q0-221-40-368q-40-148-111-235q-71-87-165-124q-95-38-204-38q-144 0-257 69q-113 68-178 231q-65 162-65 445q0 282 70 450q70 167 188 241q117 74 262 74q145 0 258-72q113-73 178-236q64-164 64-437zM11279 0m910 715q0 221-35 353q-36 131-105 189q-69 58-170 58q-145 0-227-132q-83-132-83-438q0-220 37-351q36-132 105-190q69-59 168-59q144 0 227 133q83 132 83 437zm200 25q0-221-40-368q-40-148-111-235q-71-87-165-124q-95-38-204-38q-144 0-257 69q-113 68-178 231q-65 162-65 445q0 282 70 450q70 167 188 241q117 74 262 74q145 0 258-72q113-73 178-236q64-164 64-437z" transform="translate(739.7 134.2) scale(0.0137 -0.0137)" fill="#1f3a5f"/><path d="M0 0m365 1310v-455h195q161 0 236 66q74 65 74 169q0 112-64 169q-65 56-216 56q-58 0-125-1q-68-2-100-4zm-190-855v545q0 147-2 274q-2 126-13 186q66 5 190 8q123 2 250 2q223 0 344-77q121-77 121-273q0-126-71-203q-72-78-174-117q77-20 151-61q73-42 121-118q48-76 48-201q0-121-54-218q-54-98-171-155q-118-57-310-57q-101 0-193 2q-92 1-158 4q-67 2-94 4q11 60 13 184q2 123 2 271zm190 245v-545q28-1 95-3q66-2 150-2q86 0 163 24q76 24 124 83q48 59 48 163q0 280-345 280zM1285 0m989 485h-744v140h565q0 129-70 197q-71 68-180 68q-131 0-205-93q-75-93-75-292q0-185 91-275q90-90 229-90q97 0 191 23q93 22 184 77l20-165q-106-55-205-77q-99-23-215-23q-127 0-236 59q-110 59-177 175q-67 116-67 286q0 166 59 288q58 122 166 190q107 67 255 67q124 0 205-42q80-42 126-112q46-70 65-154q19-85 19-169q0-13 0-38q0-26-1-40zM2380 0m1055 0h-175q-14 32-24 94q-11 61-16 127q-5 65-5 109v80q-39-103-100-203q-61-101-143-166q-82-66-187-66q-126 0-213 112q-87 111-87 323q0 119 32 232q32 112 98 202q66 90 168 143q102 53 242 53q97 0 183-12q86-13 162-33v-465q0-189 18-317q18-129 47-213zm-250 735v127q-25 6-62 12q-38 6-113 6q-130 0-204-67q-75-68-105-175q-31-107-31-228q0-116 43-190q43-75 102-75q53 0 106 47q53 46 101 120q47 73 84 155q36 81 58 153q21 72 21 115z" transform="translate(490.9 196.2) scale(0.0137 -0.0137)" fill="#1f3a5f"/><path d="M0 0m460 0h-185q62 212 127 388q64 176 136 329q71 152 153 293q82 141 179 285h-390q-141 0-232-4q-91-4-148-16v185h990v-160q-222-304-377-630q-156-326-253-670zM1750 0m330 0h-185q0 121 0 258q0 136 0 272q0 136 0 257q0 120 0 210q0 90 0 133q0 161-2 284q-2 122-13 186h200zm405 1020h250l-549-496l-156 26zm-430-470l105 110l605-660h-245zM2785 0m405 1020v-995q0-186-46-294q-46-109-130-155q-85-46-199-46q-42 0-108 17q-67 17-112 48l35 165q33-25 93-42q60-18 102-18q80 0 130 64q50 63 50 211v555q0 146-2 279q-3 132-13 211zm-220 325q0 56 35 96q35 39 90 39q56 0 93-39q37-40 37-96q0-55-37-95q-37-40-93-40q-55 0-90 40q-35 40-35 95zM3380 0m95 505q0 172 67 292q66 119 177 181q110 62 241 62q138 0 243-62q104-62 163-181q59-120 59-292q0-172-66-290q-67-118-177-179q-110-61-242-61q-137 0-242 61q-105 61-164 179q-59 118-59 290zm185 0q0-175 81-272q80-98 209-98q121 0 206 98q84 97 84 272q0 176-80 276q-81 99-210 99q-121 0-205-99q-85-100-85-276zM4520 0m375 1600v-1125q0-64 3-155q2-91 7-178q4-87 10-142h-205v1130q0 293-20 470zM5085 0m1055 0h-175q-14 32-24 94q-11 61-16 127q-5 65-5 109v80q-39-103-100-203q-61-101-143-166q-82-66-187-66q-126 0-213 112q-87 111-87 323q0 119 32 232q32 112 98 202q66 90 168 143q102 53 242 53q97 0 183-12q86-13 162-33v-465q0-189 18-317q18-129 47-213zm-250 735v127q-25 6-62 12q-38 6-113 6q-130 0-204-67q-75-68-105-175q-31-107-31-228q0-116 43-190q43-75 102-75q53 0 106 47q53 46 101 120q47 73 84 155q36 81 58 153q21 72 21 115zM6235 0m340 0h-185v615q0 147-16 250q-17 103-34 155h180q8-21 16-58q7-37 14-75q7-38 10-62q73 104 165 160q92 55 160 55q84 0 135-47q50-48 73-124q22-76 22-164l-160-35q0 75-28 133q-28 57-87 57q-42 0-95-41q-54-42-101-106q-47-65-69-133z" transform="translate(591.3 196.2) scale(0.0137 -0.0137)" fill="#1f3a5f"/><path d="M0 0m460 0h-185q62 212 127 388q64 176 136 329q71 152 153 293q82 141 179 285h-390q-141 0-232-4q-91-4-148-16v185h990v-160q-222-304-377-630q-156-326-253-670zM1750 0m205 709q0 56 40 95q39 39 94 39q56 0 95-39q39-39 39-95q0-55-39-94q-39-40-95-40q-55 0-94 40q-40 39-40 94zM2979 0m1125 395h-190v-395h-190v395h-655v155l655 930h190v-930h190zm-380 842l-482-687h482zM4179 0m910 715q0 221-35 353q-36 131-105 189q-69 58-170 58q-145 0-227-132q-83-132-83-438q0-220 37-351q36-132 105-190q69-59 168-59q144 0 227 133q83 132 83 437zm200 25q0-221-40-368q-40-148-111-235q-71-87-165-124q-95-38-204-38q-144 0-257 69q-113 68-178 231q-65 162-65 445q0 282 70 450q70 167 188 241q117 74 262 74q145 0 258-72q113-73 178-236q64-164 64-437zM5929 0m120 480v150h960v-150zm0 350v150h960v-150zM7679 0m1080 180v-180h-960v170q81 58 175 139q94 80 185 174q91 93 166 191q74 98 119 193q45 95 45 178q0 94-41 151q-42 57-107 83q-65 26-137 26q-92 0-190-52q-98-52-165-133l-45 170q41 56 111 100q70 44 155 70q85 25 169 25q120 0 223-51q102-52 165-146q62-94 62-223q0-101-42-204q-43-104-113-204q-70-100-152-191q-83-91-165-168q-82-77-148-133h255q148 0 262 3q113 2 173 12zM8879 0m600-25q-128 0-245 51q-117 51-191 148q-74 96-74 231q0 103 38 178q38 74 98 126q60 51 124 86q-39 22-85 60q-47 37-81 98q-34 61-34 152q0 123 68 208q67 84 172 128q105 44 220 44q115 0 216-44q100-44 162-128q62-85 62-208q0-91-32-150q-33-60-78-97q-46-38-85-63q55-28 114-80q59-53 100-130q41-77 41-180q0-135-74-231q-74-97-190-148q-117-51-246-51zm260 1130q0 110-76 165q-77 55-184 55q-107 0-183-55q-77-55-77-165q0-117 77-178q76-62 183-62q107 0 184 62q76 61 76 178zm50-680q0 125-88 205q-88 80-222 80q-135 0-222-80q-88-80-88-205q0-131 88-205q87-75 222-75q134 0 222 75q88 74 88 205zM10079 0m910 715q0 221-35 353q-36 131-105 189q-69 58-170 58q-145 0-227-132q-83-132-83-438q0-220 37-351q36-132 105-190q69-59 168-59q144 0 227 133q83 132 83 437zm200 25q0-221-40-368q-40-148-111-235q-71-87-165-124q-95-38-204-38q-144 0-257 69q-113 68-178 231q-65 162-65 445q0 282 70 450q70 167 188 241q117 74 262 74q145 0 258-72q113-73 178-236q64-164 64-437z" transform="translate(747.9 196.2) scale(0.0137 -0.0137)" fill="#1f3a5f"/><path d="M0 0m1190 335l40-195q-58-54-141-90q-84-37-173-56q-90-19-166-19q-202 0-349 90q-147 90-226 255q-80 165-80 390q0 193 55 339q55 145 151 242q95 97 216 146q121 48 253 48q107 0 223-30q115-30 222-110l-60-180q-94 85-194 118q-100 32-191 32q-139 0-247-65q-109-65-171-194q-62-129-62-321q0-179 61-310q61-132 168-203q106-72 241-72q114 0 230 51q116 50 200 134zM1355 0m375 1600v-1125q0-64 3-155q2-91 7-178q4-87 10-142h-205v1130q0 293-20 470zM1920 0m989 485h-744v140h565q0 129-70 197q-71 68-180 68q-131 0-205-93q-75-93-75-292q0-185 91-275q90-90 229-90q97 0 191 23q93 22 184 77l20-165q-106-55-205-77q-99-23-215-23q-127 0-236 59q-110 59-177 175q-67 116-67 286q0 166 59 288q58 122 166 190q107 67 255 67q124 0 205-42q80-42 126-112q46-70 65-154q19-85 19-169q0-13 0-38q0-26-1-40zM3015 0m95 505q0 172 67 292q66 119 177 181q110 62 241 62q138 0 243-62q104-62 163-181q59-120 59-292q0-172-66-290q-67-118-177-179q-110-61-242-61q-137 0-242 61q-105 61-164 179q-59 118-59 290zm185 0q0-175 81-272q80-98 209-98q121 0 206 98q84 97 84 272q0 176-80 276q-81 99-210 99q-121 0-205-99q-85-100-85-276z" transform="translate(486.6 258.2) scale(0.0137 -0.0137)" fill="#1f3a5f"/><path d="M0 0m220 0v170h315v1090l-300-172l-25 180l345 212h170v-1310h315v-170zM1200 0m600-25q-128 0-245 51q-117 51-191 148q-74 96-74 231q0 103 38 178q38 74 98 126q60 51 124 86q-39 22-85 60q-47 37-81 98q-34 61-34 152q0 123 68 208q67 84 172 128q105 44 220 44q115 0 216-44q100-44 162-128q62-85 62-208q0-91-32-150q-33-60-78-97q-46-38-85-63q55-28 114-80q59-53 100-130q41-77 41-180q0-135-74-231q-74-97-190-148q-117-51-246-51zm260 1130q0 110-76 165q-77 55-184 55q-107 0-183-55q-77-55-77-165q0-117 77-178q76-62 183-62q107 0 184 62q76 61 76 178zm50-680q0 125-88 205q-88 80-222 80q-135 0-222-80q-88-80-88-205q0-131 88-205q87-75 222-75q134 0 222 75q88 74 88 205zM2950 0m760 215v-160q-69-44-132-62q-63-18-116-18q-78 0-142 26q-64 25-102 90q-38 64-38 179q0 36 0 118q0 82 0 194q0 111 0 239q0 127 0 256q0 129 0 243h185q0-128 0-273q0-146 0-282q0-136 0-236q0-101 0-139q0-103 14-157q13-54 41-73q28-20 73-20q82 0 217 75zm-20 635h-710v145h710zM3785 0m340 0h-185v615q0 147-16 250q-17 103-34 155h180q8-21 16-58q7-37 14-75q7-38 10-62q73 104 165 160q92 55 160 55q84 0 135-47q50-48 73-124q22-76 22-164l-160-35q0 75-28 133q-28 57-87 57q-42 0-95-41q-54-42-101-106q-47-65-69-133zM4675 0m95 505q0 172 67 292q66 119 177 181q110 62 241 62q138 0 243-62q104-62 163-181q59-120 59-292q0-172-66-290q-67-118-177-179q-110-61-242-61q-137 0-242 61q-105 61-164 179q-59 118-59 290zm185 0q0-175 81-272q80-98 209-98q121 0 206 98q84 97 84 272q0 176-80 276q-81 99-210 99q-121 0-205-99q-85-100-85-276zm370 840q0 56 38 96q37 39 92 39q56 0 93-39q37-40 37-96q0-55-37-95q-37-40-93-40q-55 0-92 40q-38 40-38 95zm-420 0q0 56 38 96q37 39 92 39q56 0 93-39q37-40 37-96q0-55-37-95q-37-40-93-40q-55 0-92 40q-38 40-38 95zM5815 0m405 1020v-995q0-186-46-294q-46-109-130-155q-85-46-199-46q-42 0-108 17q-67 17-112 48l35 165q33-25 93-42q60-18 102-18q80 0 130 64q50 63 50 211v555q0 146-2 279q-3 132-13 211zm-220 325q0 56 35 96q35 39 90 39q56 0 93-39q37-40 37-96q0-55-37-95q-37-40-93-40q-55 0-90 40q-35 40-35 95zM6410 0m95 505q0 172 67 292q66 119 177 181q110 62 241 62q138 0 243-62q104-62 163-181q59-120 59-292q0-172-66-290q-67-118-177-179q-110-61-242-61q-137 0-242 61q-105 61-164 179q-59 118-59 290zm185 0q0-175 81-272q80-98 209-98q121 0 206 98q84 97 84 272q0 176-80 276q-81 99-210 99q-121 0-205-99q-85-100-85-276zM7550 0m340 0h-185v615q0 147-16 250q-17 103-34 155h180q8-21 16-58q7-37 14-75q7-38 10-62q73 104 165 160q92 55 160 55q84 0 135-47q50-48 73-124q22-76 22-164l-160-35q0 75-28 133q-28 57-87 57q-42 0-95-41q-54-42-101-106q-47-65-69-133z" transform="translate(582.3 258.2) scale(0.0137 -0.0137)" fill="#1f3a5f"/><path d="M0 0m220 0v170h315v1090l-300-172l-25 180l345 212h170v-1310h315v-170zM1200 0m600-25q-128 0-245 51q-117 51-191 148q-74 96-74 231q0 103 38 178q38 74 98 126q60 51 124 86q-39 22-85 60q-47 37-81 98q-34 61-34 152q0 123 68 208q67 84 172 128q105 44 220 44q115 0 216-44q100-44 162-128q62-85 62-208q0-91-32-150q-33-60-78-97q-46-38-85-63q55-28 114-80q59-53 100-130q41-77 41-180q0-135-74-231q-74-97-190-148q-117-51-246-51zm260 1130q0 110-76 165q-77 55-184 55q-107 0-183-55q-77-55-77-165q0-117 77-178q76-62 183-62q107 0 184 62q76 61 76 178zm50-680q0 125-88 205q-88 80-222 80q-135 0-222-80q-88-80-88-205q0-131 88-205q87-75 222-75q134 0 222 75q88 74 88 205zM2950 0m205 709q0 56 40 95q39 39 94 39q56 0 95-39q39-39 39-95q0-55-39-94q-39-40-95-40q-55 0-94 40q-40 39-40 94zM4179 0m220 0v170h315v1090l-300-172l-25 180l345 212h170v-1310h315v-170zM5379 0m195 685v775h805v-190q-56 12-114 16q-58 4-121 4h-385v-370q23 3 67 7q43 3 98 3q144 0 261-58q116-58 185-160q69-103 69-237q0-156-70-268q-71-112-193-172q-122-60-279-60q-116 0-205 24q-89 23-183 81l30 210q101-81 183-108q82-27 187-27q150 0 245 82q95 82 95 233q0 101-56 163q-57 61-140 89q-84 28-164 28q-79 0-150-14q-72-15-165-51zM7129 0m120 480v150h960v-150zm0 350v150h960v-150zM8879 0m1080 180v-180h-960v170q81 58 175 139q94 80 185 174q91 93 166 191q74 98 119 193q45 95 45 178q0 94-41 151q-42 57-107 83q-65 26-137 26q-92 0-190-52q-98-52-165-133l-45 170q41 56 111 100q70 44 155 70q85 25 169 25q120 0 223-51q102-52 165-146q62-94 62-223q0-101-42-204q-43-104-113-204q-70-100-152-191q-83-91-165-168q-82-77-148-133h255q148 0 262 3q113 2 173 12zM10079 0m460 0h-185q62 212 127 388q64 176 136 329q71 152 153 293q82 141 179 285h-390q-141 0-232-4q-91-4-148-16v185h990v-160q-222-304-377-630q-156-326-253-670zM11279 0m910 715q0 221-35 353q-36 131-105 189q-69 58-170 58q-145 0-227-132q-83-132-83-438q0-220 37-351q36-132 105-190q69-59 168-59q144 0 227 133q83 132 83 437zm200 25q0-221-40-368q-40-148-111-235q-71-87-165-124q-95-38-204-38q-144 0-257 69q-113 68-178 231q-65 162-65 445q0 282 70 450q70 167 188 241q117 74 262 74q145 0 258-72q113-73 178-236q64-164 64-437z" transform="translate(739.7 258.2) scale(0.0137 -0.0137)" fill="#1f3a5f"/><path d="M0 0m175 455v545q0 147-2 274q-2 126-13 186q43 3 125 6q82 2 173 3q90 1 157 1q64 0 154-14q89-14 184-55q95-41 178-121q82-81 133-212q51-132 51-328q0-178-46-306q-46-129-123-215q-77-86-171-136q-95-50-193-71q-99-22-187-22q-46 0-123 2q-78 1-162 4q-84 2-150 4q11 60 13 184q2 123 2 271zm190 850v-1140q35-3 92-6q57-4 128-4q101 0 196 31q95 30 172 97q77 67 122 175q45 108 45 262q0 224-72 353q-73 128-193 183q-121 54-265 54q-49 0-118-1q-69-2-107-4zM1435 0m1055 0h-175q-14 32-24 94q-11 61-16 127q-5 65-5 109v80q-39-103-100-203q-61-101-143-166q-82-66-187-66q-126 0-213 112q-87 111-87 323q0 119 32 232q32 112 98 202q66 90 168 143q102 53 242 53q97 0 183-12q86-13 162-33v-465q0-189 18-317q18-129 47-213zm-250 735v127q-25 6-62 12q-38 6-113 6q-130 0-204-67q-75-68-105-175q-31-107-31-228q0-116 43-190q43-75 102-75q53 0 106 47q53 46 101 120q47 73 84 155q36 81 58 153q21 72 21 115zM2585 0m1050 0h-185q0 67 0 147q0 79 0 158q0 78 0 143q0 65 0 102q0 125-22 194q-22 68-66 95q-44 26-112 26q-72 0-138-43q-66-43-115-108q-50-66-72-134v-580h-185q0 91 0 208q0 116 0 226q0 110 0 181q0 147-16 250q-17 103-34 155h180q8-21 16-58q7-37 14-75q7-38 10-62q95 114 192 165q97 50 203 50q160 0 245-104q85-105 85-311q0-45 0-120q0-75 0-164q0-89 0-178q0-89 0-163z" transform="translate(489.2 320.2) scale(0.0137 -0.0137)" fill="#1f3a5f"/><path d="M0 0m1080 180v-180h-960v170q81 58 175 139q94 80 185 174q91 93 166 191q74 98 119 193q45 95 45 178q0 94-41 151q-42 57-107 83q-65 26-137 26q-92 0-190-52q-98-52-165-133l-45 170q41 56 111 100q70 44 155 70q85 25 169 25q120 0 223-51q102-52 165-146q62-94 62-223q0-101-42-204q-43-104-113-204q-70-100-152-191q-83-91-165-168q-82-77-148-133h255q148 0 262 3q113 2 173 12zM1200 0m193 65l44 195q65-64 134-87q68-23 140-23q119 0 211 65q92 64 145 210q52 145 52 388q0 126-30 240q-31 114-101 186q-71 71-192 71q-132 0-211-77q-79-77-79-197q0-132 79-204q79-72 198-72q116 0 213 58q97 58 152 143l71-83q-48-80-119-146q-72-67-158-106q-87-40-183-40q-139 0-239 57q-100 56-154 151q-54 94-54 208q0 152 71 260q70 108 185 166q115 57 248 57q155 0 267-89q111-89 171-248q60-159 60-368q0-138-29-280q-30-142-99-261q-70-119-188-191q-119-73-297-73q-88 0-159 19q-71 19-149 71zM2950 0m330 0h-185q0 121 0 258q0 136 0 272q0 136 0 257q0 120 0 210q0 90 0 133q0 161-2 284q-2 122-13 186h200zm405 1020h250l-549-496l-156 26zm-430-470l105 110l605-660h-245zM3985 0m989 485h-744v140h565q0 129-70 197q-71 68-180 68q-131 0-205-93q-75-93-75-292q0-185 91-275q90-90 229-90q97 0 191 23q93 22 184 77l20-165q-106-55-205-77q-99-23-215-23q-127 0-236 59q-110 59-177 175q-67 116-67 286q0 166 59 288q58 122 166 190q107 67 255 67q124 0 205-42q80-42 126-112q46-70 65-154q19-85 19-169q0-13 0-38q0-26-1-40zM5080 0m105 1020h180q11-25 22-73q11-48 18-117q71 93 165 152q94 58 205 58q114 0 200-65q85-65 133-179q47-114 47-261q0-171-61-296q-62-126-165-195q-103-69-229-69q-80 0-144 30q-65 30-136 80v-235q0-120 6-198q6-78 19-142h-210q0 126 0 273q0 147 0 288q0 140 0 251q0 110 0 163q0 187-8 319q-8 131-42 216zm235-445v-315q69-48 114-74q45-26 83-36q37-10 83-10q71 0 133 44q61 44 99 126q38 82 38 195q0 167-61 266q-61 99-169 99q-86 0-175-75q-89-75-145-220zM6250 0m835 960l-35-175q-50 29-126 62q-76 33-169 33q-110 0-152-42q-43-43-43-88q0-35 17-59q16-25 67-46q51-21 156-45q91-20 166-56q74-36 119-96q45-60 45-153q0-90-51-162q-52-73-139-115q-87-43-195-43q-121 0-223 35q-103 34-162 80l50 180q68-61 165-98q96-37 175-37q88 0 144 42q56 41 56 93q0 38-22 70q-22 31-81 60q-60 28-172 55q-121 30-185 73q-64 43-87 97q-23 53-23 115q0 35 18 85q18 50 61 100q42 49 117 82q75 33 189 33q109 0 189-25q79-26 131-55zM7215 0m1055 0h-175q-14 32-24 94q-11 61-16 127q-5 65-5 109v80q-39-103-100-203q-61-101-143-166q-82-66-187-66q-126 0-213 112q-87 111-87 323q0 119 32 232q32 112 98 202q66 90 168 143q102 53 242 53q97 0 183-12q86-13 162-33v-465q0-189 18-317q18-129 47-213zm-250 735v127q-25 6-62 12q-38 6-113 6q-130 0-204-67q-75-68-105-175q-31-107-31-228q0-116 43-190q43-75 102-75q53 0 106 47q53 46 101 120q47 73 84 155q36 81 58 153q21 72 21 115zM8365 0m340 0h-185v615q0 147-16 250q-17 103-34 155h180q8-21 16-58q7-37 14-75q7-38 10-62q73 104 165 160q92 55 160 55q84 0 135-47q50-48 73-124q22-76 22-164l-160-35q0 75-28 133q-28 57-87 57q-42 0-95-41q-54-42-101-106q-47-65-69-133z" transform="translate(576.7 320.2) scale(0.0137 -0.0137)" fill="#1f3a5f"/><path d="M0 0m1080 180v-180h-960v170q81 58 175 139q94 80 185 174q91 93 166 191q74 98 119 193q45 95 45 178q0 94-41 151q-42 57-107 83q-65 26-137 26q-92 0-190-52q-98-52-165-133l-45 170q41 56 111 100q70 44 155 70q85 25 169 25q120 0 223-51q102-52 165-146q62-94 62-223q0-101-42-204q-43-104-113-204q-70-100-152-191q-83-91-165-168q-82-77-148-133h255q148 0 262 3q113 2 173 12zM1200 0m193 65l44 195q65-64 134-87q68-23 140-23q119 0 211 65q92 64 145 210q52 145 52 388q0 126-30 240q-31 114-101 186q-71 71-192 71q-132 0-211-77q-79-77-79-197q0-132 79-204q79-72 198-72q116 0 213 58q97 58 152 143l71-83q-48-80-119-146q-72-67-158-106q-87-40-183-40q-139 0-239 57q-100 56-154 151q-54 94-54 208q0 152 71 260q70 108 185 166q115 57 248 57q155 0 267-89q111-89 171-248q60-159 60-368q0-138-29-280q-30-142-99-261q-70-119-188-191q-119-73-297-73q-88 0-159 19q-71 19-149 71zM2950 0m205 709q0 56 40 95q39 39 94 39q56 0 95-39q39-39 39-95q0-55-39-94q-39-40-95-40q-55 0-94 40q-40 39-40 94zM4179 0m220 0v170h315v1090l-300-172l-25 180l345 212h170v-1310h315v-170zM5379 0m910 715q0 221-35 353q-36 131-105 189q-69 58-170 58q-145 0-227-132q-83-132-83-438q0-220 37-351q36-132 105-190q69-59 168-59q144 0 227 133q83 132 83 437zm200 25q0-221-40-368q-40-148-111-235q-71-87-165-124q-95-38-204-38q-144 0-257 69q-113 68-178 231q-65 162-65 445q0 282 70 450q70 167 188 241q117 74 262 74q145 0 258-72q113-73 178-236q64-164 64-437zM7129 0m120 480v150h960v-150zm0 350v150h960v-150zM8879 0m1080 180v-180h-960v170q81 58 175 139q94 80 185 174q91 93 166 191q74 98 119 193q45 95 45 178q0 94-41 151q-42 57-107 83q-65 26-137 26q-92 0-190-52q-98-52-165-133l-45 170q41 56 111 100q70 44 155 70q85 25 169 25q120 0 223-51q102-52 165-146q62-94 62-223q0-101-42-204q-43-104-113-204q-70-100-152-191q-83-91-165-168q-82-77-148-133h255q148 0 262 3q113 2 173 12zM10079 0m193 65l44 195q65-64 134-87q68-23 140-23q119 0 211 65q92 64 145 210q52 145 52 388q0 126-30 240q-31 114-101 186q-71 71-192 71q-132 0-211-77q-79-77-79-197q0-132 79-204q79-72 198-72q116 0 213 58q97 58 152 143l71-83q-48-80-119-146q-72-67-158-106q-87-40-183-40q-139 0-239 57q-100 56-154 151q-54 94-54 208q0 152 71 260q70 108 185 166q115 57 248 57q155 0 267-89q111-89 171-248q60-159 60-368q0-138-29-280q-30-142-99-261q-70-119-188-191q-119-73-297-73q-88 0-159 19q-71 19-149 71zM11279 0m910 715q0 221-35 353q-36 131-105 189q-69 58-170 58q-145 0-227-132q-83-132-83-438q0-220 37-351q36-132 105-190q69-59 168-59q144 0 227 133q83 132 83 437zm200 25q0-221-40-368q-40-148-111-235q-71-87-165-124q-95-38-204-38q-144 0-257 69q-113 68-178 231q-65 162-65 445q0 282 70 450q70 167 188 241q117 74 262 74q145 0 258-72q113-73 178-236q64-164 64-437z" transform="translate(739.7 320.2) scale(0.0137 -0.0137)" fill="#1f3a5f"/><path d="M470 92H930M560 30V340M720 30V340" stroke="#1f3a5f" stroke-width="2.4" fill="none" stroke-linecap="round"/><path d="M0 0m365 835h580v-160h-580v-240q0-148 2-262q2-114 13-173h-220q11 60 13 174q2 113 2 261v585q0 148-2 264q-2 116-13 176h870v-165h-665zM1150 0m340 0h-185v615q0 147-16 250q-17 103-34 155h180q8-21 16-58q7-37 14-75q7-38 10-62q73 104 165 160q92 55 160 55q84 0 135-47q50-48 73-124q22-76 22-164l-160-35q0 75-28 133q-28 57-87 57q-42 0-95-41q-54-42-101-106q-47-65-69-133zM2040 0m1055 0h-175q-14 32-24 94q-11 61-16 127q-5 65-5 109v80q-39-103-100-203q-61-101-143-166q-82-66-187-66q-126 0-213 112q-87 111-87 323q0 119 32 232q32 112 98 202q66 90 168 143q102 53 242 53q97 0 183-12q86-13 162-33v-465q0-189 18-317q18-129 47-213zm-250 735v127q-25 6-62 12q-38 6-113 6q-130 0-204-67q-75-68-105-175q-31-107-31-228q0-116 43-190q43-75 102-75q53 0 106 47q53 46 101 120q47 73 84 155q36 81 58 153q21 72 21 115zm-98 650q0 45-28 78q-29 32-82 32q-52 0-81-32q-29-33-29-78q0-45 29-77q29-33 81-33q53 0 82 33q28 32 28 77zm-325 0q0 90 63 153q62 62 152 62q90 0 153-62q62-63 62-153q0-90-62-152q-63-63-153-63q-90 0-152 63q-63 62-63 152zM3190 0m1050 0h-185q0 67 0 147q0 79 0 158q0 78 0 143q0 65 0 102q0 125-22 194q-22 68-66 95q-44 26-112 26q-72 0-138-43q-66-43-115-108q-50-66-72-134v-580h-185q0 91 0 208q0 116 0 226q0 110 0 181q0 147-16 250q-17 103-34 155h180q8-21 16-58q7-37 14-75q7-38 10-62q95 114 192 165q97 50 203 50q160 0 245-104q85-105 85-311q0-45 0-120q0-75 0-164q0-89 0-178q0-89 0-163zM4925 0m1030 1600v-1070q0-189 22-317q21-129 53-213h-180q-11 26-26 78q-16 52-29 107q-71-101-163-155q-92-55-202-55q-122 0-212 60q-90 60-139 170q-49 109-49 255q0 177 63 307q63 130 171 202q107 71 241 71q64 0 136-26q71-26 129-59v280q0 120-5 211q-6 91-20 154zm-185-1200v395q-74 40-131 58q-58 17-134 17q-76 0-142-45q-66-46-107-131q-41-85-41-204q0-174 60-264q60-91 190-91q61 0 121 39q59 38 108 99q49 61 76 127zM6115 0m610 60l-85-225l-335 830q-28 68-65 153q-37 85-95 202h200zm285 605l-240-665q-69-191-135-293q-67-102-138-139q-72-38-157-38q-68 0-129 23q-61 22-116 62l60 160q32-26 84-50q52-25 101-25q45 0 88 26q42 25 88 102q45 76 99 227q8 23 22 60q13 37 30 85q37 105 87 247q50 142 103 293q53 150 98 280h200q-52-116-86-200q-34-85-59-155zM7175 0m340 0h-185v615q0 147-16 250q-17 103-34 155h180q8-21 16-58q7-37 14-75q7-38 10-62q73 104 165 160q92 55 160 55q84 0 135-47q50-48 73-124q22-76 22-164l-160-35q0 75-28 133q-28 57-87 57q-42 0-95-41q-54-42-101-106q-47-65-69-133zM8065 0m1055 0h-175q-14 32-24 94q-11 61-16 127q-5 65-5 109v80q-39-103-100-203q-61-101-143-166q-82-66-187-66q-126 0-213 112q-87 111-87 323q0 119 32 232q32 112 98 202q66 90 168 143q102 53 242 53q97 0 183-12q86-13 162-33v-465q0-189 18-317q18-129 47-213zm-250 735v127q-25 6-62 12q-38 6-113 6q-130 0-204-67q-75-68-105-175q-31-107-31-228q0-116 43-190q43-75 102-75q53 0 106 47q53 46 101 120q47 73 84 155q36 81 58 153q21 72 21 115zM9215 0m835 960l-35-175q-50 29-126 62q-76 33-169 33q-110 0-152-42q-43-43-43-88q0-35 17-59q16-25 67-46q51-21 156-45q91-20 166-56q74-36 119-96q45-60 45-153q0-90-51-162q-52-73-139-115q-87-43-195-43q-121 0-223 35q-103 34-162 80l50 180q68-61 165-98q96-37 175-37q88 0 144 42q56 41 56 93q0 38-22 70q-22 31-81 60q-60 28-172 55q-121 30-185 73q-64 43-87 97q-23 53-23 115q0 35 18 85q18 50 61 100q42 49 117 82q75 33 189 33q109 0 189-25q79-26 131-55zM10180 0m760 215v-160q-69-44-132-62q-63-18-116-18q-78 0-142 26q-64 25-102 90q-38 64-38 179q0 36 0 118q0 82 0 194q0 111 0 239q0 127 0 256q0 129 0 243h185q0-128 0-273q0-146 0-282q0-136 0-236q0-101 0-139q0-103 14-157q13-54 41-73q28-20 73-20q82 0 217 75zm-20 635h-710v145h710zM11015 0m185 790q0 56 40 96q40 39 95 39q56 0 96-39q39-40 39-96q0-55-39-95q-40-40-96-40q-55 0-95 40q-40 40-40 95zm0-680q0 56 40 96q40 39 95 39q56 0 96-39q39-40 39-96q0-55-39-95q-40-40-96-40q-55 0-95 40q-40 40-40 95zM12205 0m245 0h-205q27 61 58 138q31 77 82 217l400 1105h215l400-1105q50-139 82-217q32-78 58-138h-205l-136 385h-615zm695 540l-255 725l-252-725zM13600 0m375 1600v-1125q0-64 3-155q2-91 7-178q4-87 10-142h-205v1130q0 293-20 470zM14165 0m175 1020h200q0-136 0-272q0-136 0-273q0-64 3-155q2-92 7-179q4-87 10-141h-205q0 72 0 169q0 97 0 194q0 96 0 167q0 146-2 279q-3 132-13 211zm-20 325q0 56 35 96q35 39 90 39q56 0 93-39q37-40 37-96q0-55-37-95q-37-40-93-40q-55 0-90 40q-35 40-35 95zM15280 0m410 870h70q100 0 184 36q84 35 135 91q51 56 51 118q0 68-40 111q-40 43-99 64q-60 20-121 20q-115 0-202-34q-88-34-173-121l-35 170q60 68 168 114q107 46 232 46q124 0 229-41q104-42 168-119q63-78 63-185q0-91-50-162q-51-72-125-117q-74-46-145-61q53-9 117-34q64-26 122-72q57-47 94-118q37-71 37-171q0-88-44-166q-44-78-120-137q-76-60-174-93q-99-34-207-34q-133 0-244 46q-112 46-191 119l25 215q82-92 189-148q106-57 241-57q77 0 153 31q76 30 127 91q50 61 50 153q0 82-54 144q-55 61-149 96q-94 35-212 35h-70zM16480 0m910 715q0 221-35 353q-36 131-105 189q-69 58-170 58q-145 0-227-132q-83-132-83-438q0-220 37-351q36-132 105-190q69-59 168-59q144 0 227 133q83 132 83 437zm200 25q0-221-40-368q-40-148-111-235q-71-87-165-124q-95-38-204-38q-144 0-257 69q-113 68-178 231q-65 162-65 445q0 282 70 450q70 167 188 241q117 74 262 74q145 0 258-72q113-73 178-236q64-164 64-437zM17680 0m910 715q0 221-35 353q-36 131-105 189q-69 58-170 58q-145 0-227-132q-83-132-83-438q0-220 37-351q36-132 105-190q69-59 168-59q144 0 227 133q83 132 83 437zm200 25q0-221-40-368q-40-148-111-235q-71-87-165-124q-95-38-204-38q-144 0-257 69q-113 68-178 231q-65 162-65 445q0 282 70 450q70 167 188 241q117 74 262 74q145 0 258-72q113-73 178-236q64-164 64-437zM18880 0m185 50v100q10 47 51 74q41 26 84 26q60 0 103-44q42-45 42-121q0-91-43-181q-44-91-132-174l-100 40q29 29 61 76q31 46 53 100q21 53 21 104zM20080 0m175 455v545q0 147-2 274q-2 126-13 186q43 3 125 6q82 2 173 3q90 1 157 1q64 0 154-14q89-14 184-55q95-41 178-121q82-81 133-212q51-132 51-328q0-178-46-306q-46-129-123-215q-77-86-171-136q-95-50-193-71q-99-22-187-22q-46 0-123 2q-78 1-162 4q-84 2-150 4q11 60 13 184q2 123 2 271zm190 850v-1140q35-3 92-6q57-4 128-4q101 0 196 31q95 30 172 97q77 67 122 175q45 108 45 262q0 224-72 353q-73 128-193 183q-121 54-265 54q-49 0-118-1q-69-2-107-4zM21515 0m1055 0h-175q-14 32-24 94q-11 61-16 127q-5 65-5 109v80q-39-103-100-203q-61-101-143-166q-82-66-187-66q-126 0-213 112q-87 111-87 323q0 119 32 232q32 112 98 202q66 90 168 143q102 53 242 53q97 0 183-12q86-13 162-33v-465q0-189 18-317q18-129 47-213zm-250 735v127q-25 6-62 12q-38 6-113 6q-130 0-204-67q-75-68-105-175q-31-107-31-228q0-116 43-190q43-75 102-75q53 0 106 47q53 46 101 120q47 73 84 155q36 81 58 153q21 72 21 115zM22665 0m1050 0h-185q0 67 0 147q0 79 0 158q0 78 0 143q0 65 0 102q0 125-22 194q-22 68-66 95q-44 26-112 26q-72 0-138-43q-66-43-115-108q-50-66-72-134v-580h-185q0 91 0 208q0 116 0 226q0 110 0 181q0 147-16 250q-17 103-34 155h180q8-21 16-58q7-37 14-75q7-38 10-62q95 114 192 165q97 50 203 50q160 0 245-104q85-105 85-311q0-45 0-120q0-75 0-164q0-89 0-178q0-89 0-163zM24400 0m1080 180v-180h-960v170q81 58 175 139q94 80 185 174q91 93 166 191q74 98 119 193q45 95 45 178q0 94-41 151q-42 57-107 83q-65 26-137 26q-92 0-190-52q-98-52-165-133l-45 170q41 56 111 100q70 44 155 70q85 25 169 25q120 0 223-51q102-52 165-146q62-94 62-223q0-101-42-204q-43-104-113-204q-70-100-152-191q-83-91-165-168q-82-77-148-133h255q148 0 262 3q113 2 173 12zM25600 0m193 65l44 195q65-64 134-87q68-23 140-23q119 0 211 65q92 64 145 210q52 145 52 388q0 126-30 240q-31 114-101 186q-71 71-192 71q-132 0-211-77q-79-77-79-197q0-132 79-204q79-72 198-72q116 0 213 58q97 58 152 143l71-83q-48-80-119-146q-72-67-158-106q-87-40-183-40q-139 0-239 57q-100 56-154 151q-54 94-54 208q0 152 71 260q70 108 185 166q115 57 248 57q155 0 267-89q111-89 171-248q60-159 60-368q0-138-29-280q-30-142-99-261q-70-119-188-191q-119-73-297-73q-88 0-159 19q-71 19-149 71zM26800 0m910 715q0 221-35 353q-36 131-105 189q-69 58-170 58q-145 0-227-132q-83-132-83-438q0-220 37-351q36-132 105-190q69-59 168-59q144 0 227 133q83 132 83 437zm200 25q0-221-40-368q-40-148-111-235q-71-87-165-124q-95-38-204-38q-144 0-257 69q-113 68-178 231q-65 162-65 445q0 282 70 450q70 167 188 241q117 74 262 74q145 0 258-72q113-73 178-236q64-164 64-437zM28000 0m185 50v100q10 47 51 74q41 26 84 26q60 0 103-44q42-45 42-121q0-91-43-181q-44-91-132-174l-100 40q29 29 61 76q31 46 53 100q21 53 21 104zM29200 0m365 1310v-455h195q161 0 236 66q74 65 74 169q0 112-64 169q-65 56-216 56q-58 0-125-1q-68-2-100-4zm-190-855v545q0 147-2 274q-2 126-13 186q66 5 190 8q123 2 250 2q223 0 344-77q121-77 121-273q0-126-71-203q-72-78-174-117q77-20 151-61q73-42 121-118q48-76 48-201q0-121-54-218q-54-98-171-155q-118-57-310-57q-101 0-193 2q-92 1-158 4q-67 2-94 4q11 60 13 184q2 123 2 271zm190 245v-545q28-1 95-3q66-2 150-2q86 0 163 24q76 24 124 83q48 59 48 163q0 280-345 280zM30485 0m989 485h-744v140h565q0 129-70 197q-71 68-180 68q-131 0-205-93q-75-93-75-292q0-185 91-275q90-90 229-90q97 0 191 23q93 22 184 77l20-165q-106-55-205-77q-99-23-215-23q-127 0-236 59q-110 59-177 175q-67 116-67 286q0 166 59 288q58 122 166 190q107 67 255 67q124 0 205-42q80-42 126-112q46-70 65-154q19-85 19-169q0-13 0-38q0-26-1-40zM31580 0m1055 0h-175q-14 32-24 94q-11 61-16 127q-5 65-5 109v80q-39-103-100-203q-61-101-143-166q-82-66-187-66q-126 0-213 112q-87 111-87 323q0 119 32 232q32 112 98 202q66 90 168 143q102 53 242 53q97 0 183-12q86-13 162-33v-465q0-189 18-317q18-129 47-213zm-250 735v127q-25 6-62 12q-38 6-113 6q-130 0-204-67q-75-68-105-175q-31-107-31-228q0-116 43-190q43-75 102-75q53 0 106 47q53 46 101 120q47 73 84 155q36 81 58 153q21 72 21 115zM33280 0m1080 180v-180h-960v170q81 58 175 139q94 80 185 174q91 93 166 191q74 98 119 193q45 95 45 178q0 94-41 151q-42 57-107 83q-65 26-137 26q-92 0-190-52q-98-52-165-133l-45 170q41 56 111 100q70 44 155 70q85 25 169 25q120 0 223-51q102-52 165-146q62-94 62-223q0-101-42-204q-43-104-113-204q-70-100-152-191q-83-91-165-168q-82-77-148-133h255q148 0 262 3q113 2 173 12zM34480 0m600-25q-128 0-245 51q-117 51-191 148q-74 96-74 231q0 103 38 178q38 74 98 126q60 51 124 86q-39 22-85 60q-47 37-81 98q-34 61-34 152q0 123 68 208q67 84 172 128q105 44 220 44q115 0 216-44q100-44 162-128q62-85 62-208q0-91-32-150q-33-60-78-97q-46-38-85-63q55-28 114-80q59-53 100-130q41-77 41-180q0-135-74-231q-74-97-190-148q-117-51-246-51zm260 1130q0 110-76 165q-77 55-184 55q-107 0-183-55q-77-55-77-165q0-117 77-178q76-62 183-62q107 0 184 62q76 61 76 178zm50-680q0 125-88 205q-88 80-222 80q-135 0-222-80q-88-80-88-205q0-131 88-205q87-75 222-75q134 0 222 75q88 74 88 205zM35680 0m910 715q0 221-35 353q-36 131-105 189q-69 58-170 58q-145 0-227-132q-83-132-83-438q0-220 37-351q36-132 105-190q69-59 168-59q144 0 227 133q83 132 83 437zm200 25q0-221-40-368q-40-148-111-235q-71-87-165-124q-95-38-204-38q-144 0-257 69q-113 68-178 231q-65 162-65 445q0 282 70 450q70 167 188 241q117 74 262 74q145 0 258-72q113-73 178-236q64-164 64-437zM37430 0m95 505q0 172 67 292q66 119 177 181q110 62 241 62q138 0 243-62q104-62 163-181q59-120 59-292q0-172-66-290q-67-118-177-179q-110-61-242-61q-137 0-242 61q-105 61-164 179q-59 118-59 290zm185 0q0-175 81-272q80-98 209-98q121 0 206 98q84 97 84 272q0 176-80 276q-81 99-210 99q-121 0-205-99q-85-100-85-276zM38570 0m925 85q-76-57-154-83q-78-27-191-27q-134 0-244 63q-110 62-175 178q-66 115-66 274q0 151 64 276q63 125 180 200q117 74 276 74q100 0 173-23q72-24 127-62l-35-180q-67 50-135 75q-68 25-145 25q-133 0-224-99q-91-99-91-276q0-161 85-260q85-100 230-100q90 0 165 31q75 31 140 89zM39590 0m330 580v-580h-185q0 121 0 258q0 136 0 272q0 136 0 257q0 121 0 211q0 89 0 132q0 161-2 284q-2 122-13 186h200q0-117 0-245q0-129 0-244q0-115 0-191q0-77 0-90q74 104 175 157q100 53 205 53q160 0 245-104q85-105 85-311q0-45 0-120q0-75 0-164q0-89 0-178q0-89 0-163h-185q0 67 0 147q0 79 0 158q0 78 0 143q0 65 0 102q0 125-22 194q-22 68-66 95q-45 26-112 26q-72 0-138-43q-66-43-115-108q-50-66-72-134zM41315 0m1190 335l40-195q-58-54-141-90q-84-37-173-56q-90-19-166-19q-202 0-349 90q-147 90-226 255q-80 165-80 390q0 193 55 339q55 145 151 242q95 97 216 146q121 48 253 48q107 0 223-30q115-30 222-110l-60-180q-94 85-194 118q-100 32-191 32q-139 0-247-65q-109-65-171-194q-62-129-62-321q0-179 61-310q61-132 168-203q106-72 241-72q114 0 230 51q116 50 200 134zM42670 0m375 1600v-1125q0-64 3-155q2-91 7-178q4-87 10-142h-205v1130q0 293-20 470zM43235 0m989 485h-744v140h565q0 129-70 197q-71 68-180 68q-131 0-205-93q-75-93-75-292q0-185 91-275q90-90 229-90q97 0 191 23q93 22 184 77l20-165q-106-55-205-77q-99-23-215-23q-127 0-236 59q-110 59-177 175q-67 116-67 286q0 166 59 288q58 122 166 190q107 67 255 67q124 0 205-42q80-42 126-112q46-70 65-154q19-85 19-169q0-13 0-38q0-26-1-40zM44330 0m95 505q0 172 67 292q66 119 177 181q110 62 241 62q138 0 243-62q104-62 163-181q59-120 59-292q0-172-66-290q-67-118-177-179q-110-61-242-61q-137 0-242 61q-105 61-164 179q-59 118-59 290zm185 0q0-175 81-272q80-98 209-98q121 0 206 98q84 97 84 272q0 176-80 276q-81 99-210 99q-121 0-205-99q-85-100-85-276zM46020 0m1080 180v-180h-960v170q81 58 175 139q94 80 185 174q91 93 166 191q74 98 119 193q45 95 45 178q0 94-41 151q-42 57-107 83q-65 26-137 26q-92 0-190-52q-98-52-165-133l-45 170q41 56 111 100q70 44 155 70q85 25 169 25q120 0 223-51q102-52 165-146q62-94 62-223q0-101-42-204q-43-104-113-204q-70-100-152-191q-83-91-165-168q-82-77-148-133h255q148 0 262 3q113 2 173 12zM47220 0m460 0h-185q62 212 127 388q64 176 136 329q71 152 153 293q82 141 179 285h-390q-141 0-232-4q-91-4-148-16v185h990v-160q-222-304-377-630q-156-326-253-670zM48420 0m910 715q0 221-35 353q-36 131-105 189q-69 58-170 58q-145 0-227-132q-83-132-83-438q0-220 37-351q36-132 105-190q69-59 168-59q144 0 227 133q83 132 83 437zm200 25q0-221-40-368q-40-148-111-235q-71-87-165-124q-95-38-204-38q-144 0-257 69q-113 68-178 231q-65 162-65 445q0 282 70 450q70 167 188 241q117 74 262 74q145 0 258-72q113-73 178-236q64-164 64-437zM49620 0m185 110q0 56 40 96q40 39 95 39q56 0 96-39q39-40 39-96q0-55-39-95q-40-40-96-40q-55 0-95 40q-40 40-40 95z" transform="translate(30 430) scale(0.0137 -0.0137)" fill="#1f3a5f"/><path d="M0 0m245 0h-205q27 61 58 138q31 77 82 217l400 1105h215l400-1105q50-139 82-217q32-78 58-138h-205l-136 385h-615zm695 540l-255 725l-252-725zM1395 0m375 1600v-1125q0-64 3-155q2-91 7-178q4-87 10-142h-205v1130q0 293-20 470zM1960 0m175 1020h200q0-136 0-272q0-136 0-273q0-64 3-155q2-92 7-179q4-87 10-141h-205q0 72 0 169q0 97 0 194q0 96 0 167q0 146-2 279q-3 132-13 211zm-20 325q0 56 35 96q35 39 90 39q56 0 93-39q37-40 37-96q0-55-37-95q-37-40-93-40q-55 0-90 40q-35 40-35 95zM3075 0m130 1600h200q0-110 0-234q0-125 0-239q0-114 0-195q0-82 0-107q70 92 165 154q94 61 220 61q101 0 179-64q78-64 122-177q44-113 44-259q0-171-60-298q-60-127-168-197q-109-70-257-70q-121 0-228 29q-107 29-202 61q0 41 0 121q0 80 0 184q0 104 0 216q0 112 0 219q0 106 0 192q0 85 0 133q0 72 0 160q-1 88-4 171q-3 83-11 139zm200-1015v-400q74-31 128-43q53-12 117-12q133 0 219 103q86 103 86 272q0 167-58 264q-59 96-167 96q-93 0-183-77q-91-78-142-203zM4230 0m989 485h-744v140h565q0 129-70 197q-71 68-180 68q-131 0-205-93q-75-93-75-292q0-185 91-275q90-90 229-90q97 0 191 23q93 22 184 77l20-165q-106-55-205-77q-99-23-215-23q-127 0-236 59q-110 59-177 175q-67 116-67 286q0 166 59 288q58 122 166 190q107 67 255 67q124 0 205-42q80-42 126-112q46-70 65-154q19-85 19-169q0-13 0-38q0-26-1-40zM5325 0m760 215v-160q-69-44-132-62q-63-18-116-18q-78 0-142 26q-64 25-102 90q-38 64-38 179q0 36 0 118q0 82 0 194q0 111 0 239q0 127 0 256q0 129 0 243h185q0-128 0-273q0-146 0-282q0-136 0-236q0-101 0-139q0-103 14-157q13-54 41-73q28-20 73-20q82 0 217 75zm-20 635h-710v145h710zM6160 0m1055 0h-175q-14 32-24 94q-11 61-16 127q-5 65-5 109v80q-39-103-100-203q-61-101-143-166q-82-66-187-66q-126 0-213 112q-87 111-87 323q0 119 32 232q32 112 98 202q66 90 168 143q102 53 242 53q97 0 183-12q86-13 162-33v-465q0-189 18-317q18-129 47-213zm-250 735v127q-25 6-62 12q-38 6-113 6q-130 0-204-67q-75-68-105-175q-31-107-31-228q0-116 43-190q43-75 102-75q53 0 106 47q53 46 101 120q47 73 84 155q36 81 58 153q21 72 21 115zM7310 0m375 1600v-1125q0-64 3-155q2-91 7-178q4-87 10-142h-205v1130q0 293-20 470zM7875 0m1055 0h-175q-14 32-24 94q-11 61-16 127q-5 65-5 109v80q-39-103-100-203q-61-101-143-166q-82-66-187-66q-126 0-213 112q-87 111-87 323q0 119 32 232q32 112 98 202q66 90 168 143q102 53 242 53q97 0 183-12q86-13 162-33v-465q0-189 18-317q18-129 47-213zm-250 735v127q-25 6-62 12q-38 6-113 6q-130 0-204-67q-75-68-105-175q-31-107-31-228q0-116 43-190q43-75 102-75q53 0 106 47q53 46 101 120q47 73 84 155q36 81 58 153q21 72 21 115zM9025 0m340 0h-185v615q0 147-16 250q-17 103-34 155h180q8-21 16-58q7-37 14-75q7-38 10-62q73 104 165 160q92 55 160 55q84 0 135-47q50-48 73-124q22-76 22-164l-160-35q0 75-28 133q-28 57-87 57q-42 0-95-41q-54-42-101-106q-47-65-69-133zM10465 0m945 660v-660h-185v570q0 124-13 188q-13 63-44 85q-32 22-88 22q-73 0-144-57q-71-58-111-148v-660h-185v615q0 147-17 250q-17 103-33 155h180q11-31 19-75q8-44 13-80q92 106 172 141q80 34 166 34q98 0 160-51q61-51 86-117q94 101 177 135q83 33 162 33q152 0 211-97q59-98 59-283v-660h-185v550q0 129-13 197q-13 68-44 93q-32 25-88 25q-73 0-142-55q-69-56-113-150zM12150 0m989 485h-744v140h565q0 129-70 197q-71 68-180 68q-131 0-205-93q-75-93-75-292q0-185 91-275q90-90 229-90q97 0 191 23q93 22 184 77l20-165q-106-55-205-77q-99-23-215-23q-127 0-236 59q-110 59-177 175q-67 116-67 286q0 166 59 288q58 122 166 190q107 67 255 67q124 0 205-42q80-42 126-112q46-70 65-154q19-85 19-169q0-13 0-38q0-26-1-40zM13245 0m835 960l-35-175q-50 29-126 62q-76 33-169 33q-110 0-152-42q-43-43-43-88q0-35 17-59q16-25 67-46q51-21 156-45q91-20 166-56q74-36 119-96q45-60 45-153q0-90-51-162q-52-73-139-115q-87-43-195-43q-121 0-223 35q-103 34-162 80l50 180q68-61 165-98q96-37 175-37q88 0 144 42q56 41 56 93q0 38-22 70q-22 31-81 60q-60 28-172 55q-121 30-185 73q-64 43-87 97q-23 53-23 115q0 35 18 85q18 50 61 100q42 49 117 82q75 33 189 33q109 0 189-25q79-26 131-55zM14210 0m760 215v-160q-69-44-132-62q-63-18-116-18q-78 0-142 26q-64 25-102 90q-38 64-38 179q0 36 0 118q0 82 0 194q0 111 0 239q0 127 0 256q0 129 0 243h185q0-128 0-273q0-146 0-282q0-136 0-236q0-101 0-139q0-103 14-157q13-54 41-73q28-20 73-20q82 0 217 75zm-20 635h-710v145h710zM15045 0m185 110q0 56 40 96q40 39 95 39q56 0 96-39q39-40 39-96q0-55-39-95q-40-40-96-40q-55 0-95 40q-40 40-40 95z" transform="translate(30 485) scale(0.0146 -0.0146)" fill="#1f3a5f"/><path d="M274.3 475L287.8 487L308.8 458.5" fill="none" stroke="#1f3a5f" stroke-width="4" stroke-linecap="round" stroke-linejoin="round"/></svg>